<svg width="138" height="134" viewBox="0 0 138 134" fill="none" xmlns="http://www.w3.org/2000/svg">
<path fill-rule="evenodd" clip-rule="evenodd" d="M68.789 0C30.8073 0 0 30.7485 0 68.6576C0 98.9849 19.8349 124.679 46.844 133.946C50.2202 134.367 51.4862 132.261 51.4862 130.576C51.4862 128.891 51.4862 124.679 51.4862 118.782C32.4954 122.994 28.2752 109.515 28.2752 109.515C25.3211 101.512 20.6789 99.4061 20.6789 99.4061C14.3486 95.194 21.1009 95.194 21.1009 95.194C27.8532 95.6152 31.6514 102.355 31.6514 102.355C37.9817 112.885 47.6881 109.936 51.4862 108.252C51.9083 103.618 54.0183 100.67 55.7064 98.9849C40.5138 97.3 24.4771 91.4031 24.4771 64.8667C24.4771 57.2849 27.0092 51.3879 31.6514 46.3334C31.2294 45.0697 28.6972 37.9091 32.4954 28.6424C32.4954 28.6424 38.4037 26.9576 51.4862 35.803C56.9725 34.1182 62.8807 33.697 68.789 33.697C74.6972 33.697 80.6055 34.5394 86.0917 35.803C99.1743 26.9576 105.083 28.6424 105.083 28.6424C108.881 37.9091 106.349 45.0697 105.927 46.7546C110.147 51.3879 113.101 57.7061 113.101 65.2879C113.101 91.8243 97.0642 97.3 81.8716 98.9849C84.4037 101.091 86.5138 105.303 86.5138 111.621C86.5138 120.888 86.5138 128.049 86.5138 130.576C86.5138 132.261 87.7798 134.367 91.156 133.946C118.587 124.679 138 98.9849 138 68.6576C137.578 30.7485 106.771 0 68.789 0Z" fill="#2b8bda"/>
</svg>
