<svg width="484" height="391" viewBox="0 0 484 391" fill="none" xmlns="http://www.w3.org/2000/svg">
<rect width="483.835" height="390.19" fill="#BEAAD2"/>
<mask id="mask0_203_2" style="mask-type:luminance" maskUnits="userSpaceOnUse" x="38" y="34" width="446" height="335">
<rect x="38.1204" y="34.5596" width="445.498" height="333.908" fill="white"/>
</mask>
<g mask="url(#mask0_203_2)">
<path d="M291.289 278.656H381.422C381.422 278.656 384.738 259.058 360.32 267.5C401.619 226.496 342.535 216.566 320.529 263.279C314.501 248.204 286.639 269.008 291.289 278.656Z" fill="#018E3A"/>
<mask id="mask1_203_2" style="mask-type:luminance" maskUnits="userSpaceOnUse" x="290" y="232" width="92" height="47">
<path fill-rule="evenodd" clip-rule="evenodd" d="M291.289 278.656H381.422C381.422 278.656 384.738 259.058 360.32 267.5C401.619 226.496 342.535 216.565 320.529 263.279C314.501 248.204 286.639 269.008 291.289 278.656Z" fill="white"/>
</mask>
<g mask="url(#mask1_203_2)">
<path d="M385.878 267.802C385.878 274.133 288.812 278.656 288.812 278.656L365.078 292.224L391.907 278.656" fill="#025D4A"/>
<path d="M322.574 246.018L320.53 263.279C320.53 263.279 349.478 227.593 372.765 232.283C396.052 236.973 341.791 222.501 341.791 222.501L329.131 232.283" fill="#025D4A"/>
</g>
<path d="M425.463 133.278C398.394 132.165 413.472 161.391 363.271 167.588C313.07 173.785 361.304 212.991 307.365 225.949C248.807 240.016 300.985 260.878 300.985 260.878C368.559 283.513 326.834 238.44 356.275 230.619C432.326 210.413 390.962 182.506 408.716 168.951C451.741 136.105 425.463 133.278 425.463 133.278Z" fill="#018E3A"/>
<mask id="mask2_203_2" style="mask-type:luminance" maskUnits="userSpaceOnUse" x="279" y="133" width="155" height="135">
<path fill-rule="evenodd" clip-rule="evenodd" d="M425.463 133.278C398.394 132.165 413.472 161.391 363.271 167.588C313.07 173.785 361.304 212.991 307.365 225.949C248.807 240.016 300.985 260.878 300.985 260.878C368.559 283.513 326.834 238.44 356.275 230.619C432.326 210.413 390.961 182.506 408.716 168.951C451.741 136.105 425.463 133.278 425.463 133.278Z" fill="white"/>
</mask>
<g mask="url(#mask2_203_2)">
<path d="M385.931 124.516C453.794 131.637 420.806 162.775 404.509 174.6C388.212 186.424 403.941 213.135 375.947 224.267C347.953 235.399 340.537 263.871 340.537 263.871L442.521 229.178L476.067 169.805L457.55 128.875L410.062 119.429" fill="#018E3A"/>
<path d="M379.436 153.983C328.705 185.1 361.357 217.751 307.365 225.949C253.373 234.146 304.478 266.447 304.478 266.447L248.233 250.325C248.233 250.325 281.316 187.739 281.205 187.326C281.095 186.912 347.695 151.73 347.695 151.73L377.771 161.534" fill="#315F38"/>
</g>
<path d="M288.606 269.444L293.228 270.463C293.228 270.463 414.358 155.058 406.798 157.437L288.606 269.444Z" fill="#023327"/>
<path d="M382.266 203.238L351.49 213.419L349.562 216.558L383.823 204.953C384.138 204.847 384.348 204.645 384.403 204.398C384.573 203.626 383.256 202.911 382.266 203.238Z" fill="#023327"/>
<path d="M362.39 180.07L358.52 204.375L361.783 203.412L365.131 180.595C365.167 180.344 365.043 180.074 364.789 179.851C363.993 179.153 362.515 179.288 362.39 180.07Z" fill="#023327"/>
<path d="M318.519 227.684L317.01 243.131L319.007 242.566L320.245 228.061C320.245 227.872 320.156 227.694 320.005 227.581C319.483 227.123 318.567 227.187 318.519 227.684Z" fill="#023327"/>
<path d="M337.055 245.957L315.744 248.714L316.399 247.296L336.423 244.828C336.656 244.803 336.891 244.841 337.104 244.937C337.77 245.24 337.741 245.868 337.055 245.957Z" fill="#023327"/>
<path d="M296.198 155.442L295.542 161.524C295.513 161.792 295.688 162.136 295.871 162.319C296.31 162.759 297.022 162.759 297.461 162.319C297.659 162.1 297.775 161.819 297.791 161.524L298.448 155.442C298.476 155.173 298.301 154.83 298.118 154.647C297.679 154.207 296.967 154.207 296.528 154.647C296.33 154.866 296.214 155.147 296.198 155.442Z" fill="#FFA90E"/>
<path d="M306.206 151.616C306.043 153.689 305.823 155.755 305.546 157.817L305.586 157.518C305.569 157.645 305.551 157.773 305.534 157.9C305.487 158.045 305.48 158.2 305.514 158.349C305.52 158.498 305.566 158.642 305.647 158.767C305.798 159.025 306.044 159.212 306.333 159.288C306.621 159.363 306.928 159.321 307.186 159.171C307.413 159.024 307.664 158.78 307.702 158.498C308.018 156.212 308.274 153.918 308.455 151.616C308.455 151.161 308.181 150.751 307.761 150.577C307.34 150.403 306.857 150.499 306.535 150.821C306.335 151.039 306.218 151.32 306.206 151.616H306.206Z" fill="#FFA90E"/>
<path d="M317.301 148.809C317.604 149.298 317.869 149.81 318.094 150.339L317.981 150.07C318.372 151.003 318.639 151.984 318.776 152.986L318.735 152.687C318.869 153.69 318.871 154.706 318.739 155.709L318.779 155.41C318.726 155.795 318.654 156.177 318.562 156.555C318.487 156.847 318.528 157.157 318.675 157.421C318.825 157.673 319.066 157.858 319.348 157.938C319.927 158.07 320.582 157.764 320.731 157.152C321.337 154.673 321.165 152.066 320.238 149.688C319.966 148.989 319.634 148.315 319.243 147.674C319.091 147.424 318.852 147.24 318.571 147.157C318.279 147.079 317.967 147.12 317.705 147.27C317.204 147.593 316.969 148.274 317.301 148.809H317.301Z" fill="#FFA90E"/>
<path d="M330.834 145.365V150.601C330.838 150.898 330.956 151.183 331.163 151.396C331.485 151.718 331.969 151.814 332.389 151.64C332.809 151.466 333.083 151.056 333.083 150.601V145.365C333.079 145.067 332.961 144.783 332.754 144.57C332.432 144.248 331.948 144.152 331.528 144.326C331.108 144.5 330.834 144.91 330.834 145.365H330.834Z" fill="#FFA90E"/>
<path d="M343.191 142.965C343.465 143.705 343.657 144.473 343.764 145.255L343.723 144.956C343.839 145.823 343.848 146.701 343.751 147.57C343.722 147.838 343.898 148.183 344.081 148.366C344.52 148.805 345.232 148.805 345.671 148.366L345.847 148.138C345.948 147.966 346.001 147.77 346 147.57C346.191 145.81 345.972 144.029 345.36 142.367C345.274 142.088 345.091 141.85 344.843 141.695C344.586 141.545 344.279 141.502 343.99 141.578C343.702 141.654 343.455 141.841 343.305 142.099C343.17 142.353 343.087 142.685 343.191 142.965H343.191Z" fill="#FFA90E"/>
<path d="M350.682 140.894C351.829 143.421 353.093 145.891 354.473 148.304C354.86 148.979 355.255 149.648 355.659 150.313C355.811 150.563 356.051 150.748 356.331 150.83C356.624 150.908 356.935 150.867 357.198 150.717C357.703 150.391 357.928 149.716 357.601 149.178C356.16 146.806 354.832 144.37 353.616 141.871C353.276 141.171 352.945 140.467 352.623 139.759C352.514 139.518 352.196 139.31 351.951 139.242C351.659 139.164 351.348 139.205 351.085 139.355C350.832 139.504 350.647 139.745 350.568 140.028L350.528 140.327C350.528 140.526 350.581 140.722 350.682 140.894H350.682Z" fill="#FFA90E"/>
<path d="M112.822 226.232C108.501 219.788 118.403 190.024 122.939 189.555C139.114 187.884 204.026 220.509 224.548 226.322C245.07 232.135 227.409 248.978 227.409 248.978L188.984 256.968L112.822 226.232Z" fill="#FD513D"/>
<mask id="mask3_203_2" style="mask-type:luminance" maskUnits="userSpaceOnUse" x="111" y="189" width="124" height="68">
<path fill-rule="evenodd" clip-rule="evenodd" d="M112.822 226.232C108.501 219.788 118.403 190.024 122.939 189.555C139.114 187.884 204.026 220.509 224.548 226.322C245.07 232.135 227.409 248.978 227.409 248.978L188.984 256.968L112.822 226.232Z" fill="white"/>
</mask>
<g mask="url(#mask3_203_2)">
<path d="M227.409 248.978C193.581 241.293 164.542 223.23 164.542 223.23L179.026 253.908L229.552 261.149L225.81 255.526" fill="#FD513D"/>
<path opacity="0.1" d="M78.4653 189.185H266.259" stroke="#FFA90E" stroke-width="2.02522"/>
<path opacity="0.1" d="M78.7843 205.86H266.578" stroke="#FFA90E" stroke-width="2.02522"/>
<path opacity="0.1" d="M79.1033 222.536H266.897" stroke="#FFA90E" stroke-width="2.02522"/>
<path opacity="0.1" d="M79.4222 239.211H267.216" stroke="#FFA90E" stroke-width="2.02522"/>
<path opacity="0.1" d="M79.7413 255.886H267.535" stroke="#FFA90E" stroke-width="2.02522"/>
<path opacity="0.1" d="M174.461 314.704L170.961 131.757" stroke="#FFA90E" stroke-width="2.02522"/>
<path opacity="0.1" d="M192.483 314.704L188.983 131.757" stroke="#FFA90E" stroke-width="2.02522"/>
<path opacity="0.1" d="M210.505 314.704L207.005 131.757" stroke="#FFA90E" stroke-width="2.02522"/>
<path opacity="0.1" d="M228.527 314.704L225.027 131.757" stroke="#FFA90E" stroke-width="2.02522"/>
<path opacity="0.1" d="M120.394 314.704L116.894 131.757" stroke="#FFA90E" stroke-width="2.02522"/>
<path opacity="0.1" d="M138.416 314.704L134.917 131.757" stroke="#FFA90E" stroke-width="2.02522"/>
<path opacity="0.1" d="M156.438 314.704L152.939 131.757" stroke="#FFA90E" stroke-width="2.02522"/>
<path d="M173.048 225.054C198.849 239.982 215.548 223.23 215.548 223.23L207.53 257.993L188.984 256.968L173.957 233.724" fill="#BC2E1B"/>
</g>
<path d="M184.646 151.184C171.831 169.653 176.141 203.653 176.141 203.653L188.769 227.487C188.769 227.487 199.437 231.417 212.265 194.469C224.025 160.6 197.461 132.715 184.646 151.184Z" fill="#FFDB00"/>
<mask id="mask4_203_2" style="mask-type:luminance" maskUnits="userSpaceOnUse" x="175" y="145" width="41" height="83">
<path fill-rule="evenodd" clip-rule="evenodd" d="M184.646 151.184C171.831 169.653 176.141 203.653 176.141 203.653L188.769 227.487C188.769 227.487 199.437 231.417 212.265 194.469C224.025 160.6 197.461 132.715 184.646 151.184Z" fill="white"/>
</mask>
<g mask="url(#mask4_203_2)">
<path d="M174.479 169.52C177.07 169.282 179.667 169.159 182.272 169.151C184.877 169.144 187.48 169.25 190.08 169.471C191.546 169.595 193.01 169.756 194.469 169.952L193.998 169.889C196.969 170.289 199.916 170.836 202.838 171.528C205.744 172.218 208.61 173.052 211.438 174.029C213.038 174.583 214.622 175.182 216.189 175.827C216.584 175.99 217.203 175.854 217.555 175.648C217.951 175.412 218.243 175.033 218.369 174.589C218.472 174.135 218.45 173.626 218.19 173.223L217.913 172.864C217.696 172.647 217.427 172.49 217.131 172.408C214.536 171.341 211.895 170.398 209.208 169.579C206.512 168.757 203.781 168.064 201.016 167.498C198.14 166.91 195.234 166.464 192.316 166.143C189.519 165.836 186.713 165.66 183.896 165.616C181.101 165.573 178.308 165.663 175.518 165.885C175.171 165.913 174.825 165.942 174.479 165.974C174 166.018 173.577 166.143 173.226 166.494C172.896 166.828 172.71 167.278 172.707 167.747C172.727 168.206 172.878 168.681 173.226 169.001C173.554 169.302 174.017 169.562 174.479 169.52L174.479 169.52Z" fill="#FFA90E"/>
<path d="M173.473 185.72C175.516 185.909 177.554 186.14 179.588 186.413L179.117 186.35C184.006 187.009 188.854 187.908 193.662 189.048C198.438 190.181 203.151 191.548 207.8 193.148C210.423 194.051 213.02 195.027 215.59 196.076C215.986 196.238 216.603 196.104 216.955 195.898C217.352 195.662 217.644 195.283 217.77 194.838C217.873 194.385 217.851 193.875 217.591 193.472L217.314 193.114C217.097 192.896 216.828 192.739 216.532 192.658C213.877 191.574 211.192 190.568 208.477 189.638C205.764 188.709 203.025 187.86 200.261 187.089C197.499 186.318 194.716 185.627 191.913 185.016C189.112 184.406 186.295 183.877 183.462 183.429C180.502 182.961 177.53 182.577 174.547 182.278C174.189 182.242 173.831 182.208 173.473 182.175C173.045 182.135 172.512 182.401 172.219 182.694C171.89 183.028 171.703 183.478 171.7 183.948C171.721 184.406 171.871 184.882 172.219 185.201C172.564 185.515 173.007 185.698 173.473 185.72H173.473Z" fill="#FFA90E"/>
</g>
<path d="M175.446 189.862C175.446 189.862 198.701 199.836 200.711 219.244C200.711 219.244 197.308 230.668 191.829 226.28C186.351 221.892 186.344 205.52 177.702 198.857C169.06 192.194 175.446 189.862 175.446 189.862Z" fill="#FEF9E5"/>
<path d="M200.711 219.244C267.275 256.088 307.855 195.348 285.684 178.315C247.481 148.967 291.548 135.249 229.314 129.863C229.314 129.863 194.964 141.898 187.356 148.143C179.748 154.387 200.711 219.244 200.711 219.244Z" fill="#FF9102"/>
<mask id="mask5_203_2" style="mask-type:luminance" maskUnits="userSpaceOnUse" x="185" y="129" width="107" height="102">
<path fill-rule="evenodd" clip-rule="evenodd" d="M200.711 219.244C267.275 256.088 307.855 195.348 285.684 178.315C247.481 148.967 291.548 135.249 229.314 129.863C229.314 129.863 194.964 141.898 187.356 148.143C179.748 154.387 200.711 219.244 200.711 219.244Z" fill="white"/>
</mask>
<g mask="url(#mask5_203_2)">
<path d="M186.796 175.13C190.68 176.581 194.891 176.917 199.004 177.026C203.303 177.139 207.608 177.131 211.908 177.094C216.244 177.056 220.579 176.96 224.912 176.804C228.788 176.666 232.677 176.552 236.515 175.953C239.974 175.412 243.494 174.363 246.366 172.298C246.812 171.977 247.246 171.639 247.666 171.284C247.996 171.006 248.185 170.447 248.185 170.031C248.182 169.561 247.996 169.112 247.666 168.777C246.909 168.083 245.918 168.137 245.159 168.777C245.077 168.847 244.994 168.916 244.911 168.984C244.811 169.065 244.492 169.3 244.945 168.963C244.798 169.073 244.652 169.184 244.502 169.29C244.167 169.528 243.823 169.752 243.47 169.962C242.776 170.373 242.055 170.737 241.312 171.05L241.735 170.871C239.485 171.816 237.088 172.339 234.676 172.664L235.147 172.6C232.805 172.91 230.446 173.034 228.087 173.135C225.206 173.257 222.325 173.353 219.442 173.424C213.713 173.564 207.983 173.601 202.252 173.535C199.221 173.5 196.181 173.465 193.172 173.069L193.643 173.132C191.628 172.881 189.647 172.404 187.738 171.711C187.33 171.558 186.736 171.677 186.372 171.89C185.975 172.126 185.684 172.505 185.558 172.949C185.329 173.955 185.864 174.782 186.796 175.13L186.796 175.13Z" fill="#FFA90E"/>
<path d="M188.203 186.689C192.55 187.484 196.921 188.119 201.318 188.596C205.612 189.064 209.92 189.374 214.24 189.526C218.53 189.678 222.822 189.673 227.116 189.512C231.42 189.351 235.715 189.031 240 188.554C244.367 188.067 248.714 187.423 253.04 186.622C253.575 186.522 254.11 186.419 254.645 186.314C255.556 186.136 256.162 184.997 255.882 184.134C255.568 183.163 254.679 182.704 253.702 182.895C251.625 183.303 249.541 183.672 247.45 184.004C246.393 184.171 245.335 184.329 244.276 184.476C244.027 184.511 243.777 184.543 243.528 184.579C243.528 184.579 243.891 184.531 243.687 184.558C243.624 184.566 243.562 184.574 243.5 184.582C243.333 184.604 243.167 184.626 243 184.648C242.48 184.715 241.959 184.78 241.438 184.842C237.204 185.35 232.955 185.703 228.692 185.901C224.425 186.099 220.155 186.142 215.882 186.031C211.607 185.92 207.339 185.654 203.08 185.233C202.031 185.13 200.983 185.017 199.936 184.894C199.391 184.831 198.847 184.765 198.303 184.696C198.052 184.664 197.801 184.632 197.55 184.599C197.425 184.583 197.299 184.566 197.174 184.549C197.126 184.543 196.907 184.514 197.159 184.548C197.424 184.583 197.133 184.544 197.081 184.537C194.949 184.246 192.823 183.917 190.703 183.549C190.184 183.458 189.664 183.366 189.146 183.271C188.668 183.183 188.212 183.197 187.78 183.449C187.383 183.685 187.092 184.064 186.965 184.509C186.768 185.377 187.228 186.511 188.203 186.689H188.203Z" fill="#FFA90E"/>
</g>
<path d="M251.043 196.021L257.544 200.316C257.544 200.316 281.412 132.942 245.785 134.23C219.941 135.164 227.875 189.724 227.875 189.724L251.043 196.021Z" fill="#FFDB00"/>
<mask id="mask6_203_2" style="mask-type:luminance" maskUnits="userSpaceOnUse" x="226" y="134" width="40" height="67">
<path fill-rule="evenodd" clip-rule="evenodd" d="M251.043 196.021L257.544 200.316C257.544 200.316 281.412 132.942 245.785 134.23C219.941 135.164 227.875 189.724 227.875 189.724L251.043 196.021Z" fill="white"/>
</mask>
<g mask="url(#mask6_203_2)">
<path d="M223.77 161.896C226.68 161.381 229.597 160.906 232.526 160.511L232.055 160.574C238.603 159.695 245.23 159.212 251.835 159.608C253.561 159.712 255.282 159.878 256.998 160.106L256.527 160.042C260.44 160.552 264.292 161.449 268.027 162.721C269.078 163.084 270.116 163.481 271.141 163.912L270.718 163.733C272.162 164.343 273.573 165.021 274.953 165.767C275.767 166.209 276.921 165.996 277.378 165.131C277.815 164.304 277.612 163.178 276.742 162.706C273.682 161.055 270.464 159.715 267.136 158.706C263.778 157.679 260.337 157 256.858 156.542C253.422 156.099 249.959 155.893 246.494 155.925C242.815 155.962 239.14 156.189 235.485 156.607C231.706 157.025 227.944 157.592 224.197 158.238C223.741 158.316 223.284 158.396 222.828 158.477C222.414 158.55 221.973 158.942 221.769 159.292C221.531 159.706 221.467 160.197 221.59 160.658C221.729 161.087 221.995 161.501 222.404 161.717C222.824 161.936 223.308 161.999 223.77 161.896V161.896Z" fill="#FFA90E"/>
<path d="M223.605 173.983C228.026 173.446 232.471 173.131 236.923 173.039C241.352 172.947 245.778 173.074 250.201 173.42C252.714 173.616 255.22 173.883 257.719 174.219L257.248 174.156C261.457 174.724 265.632 175.488 269.775 176.448C270.958 176.723 272.136 177.014 273.311 177.32C274.207 177.554 275.276 177.024 275.491 176.082C275.702 175.156 275.213 174.152 274.253 173.902C271.054 173.067 267.828 172.351 264.574 171.752C261.201 171.133 257.807 170.638 254.393 170.268C251.112 169.909 247.821 169.67 244.519 169.551C241.241 169.434 237.961 169.436 234.68 169.559C231.391 169.682 228.11 169.927 224.836 170.294C224.425 170.34 224.015 170.388 223.605 170.438C223.118 170.497 222.712 170.597 222.352 170.957C222.022 171.291 221.836 171.741 221.833 172.211C221.853 172.669 222.004 173.145 222.352 173.464C222.674 173.76 223.15 174.039 223.605 173.983H223.605Z" fill="#FFA90E"/>
</g>
<ellipse cx="201.504" cy="100.045" rx="17.1676" ry="14.0248" transform="rotate(-25.2549 201.504 100.045)" fill="#0E1317"/>
<ellipse cx="220.145" cy="114.915" rx="19.292" ry="17.0082" transform="rotate(-25.253 220.145 114.915)" fill="#0E1317"/>
<mask id="mask7_203_2" style="mask-type:luminance" maskUnits="userSpaceOnUse" x="201" y="97" width="39" height="36">
<ellipse cx="220.145" cy="114.915" rx="19.292" ry="17.0082" transform="rotate(-25.253 220.145 114.915)" fill="white"/>
</mask>
<g mask="url(#mask7_203_2)">
<path d="M186.563 98.3159C188.823 98.4183 191.069 97.916 193.071 96.8609C195.154 96.1864 197.027 94.9829 198.506 93.368C200.121 91.8884 201.324 90.0151 201.999 87.9313C203.053 85.9298 203.556 83.6831 203.453 81.4228L202.85 76.9319C202.072 74.1127 200.575 71.5439 198.506 69.4775L195.088 66.836C192.503 65.3212 189.56 64.5249 186.563 64.5296C184.303 64.4272 182.057 64.9295 180.056 65.9846C177.973 66.6591 176.1 67.8626 174.62 69.4775C173.006 70.9572 171.803 72.8304 171.128 74.9142C170.073 76.9157 169.571 79.1625 169.674 81.4228L170.277 85.9136C171.055 88.7328 172.551 91.3016 174.62 93.368L178.039 96.0095C180.624 97.5243 183.567 98.3206 186.563 98.3159H186.563Z" fill="#FFA90E"/>
</g>
<path d="M214.796 124.22L219.62 106.008C221.892 97.43 214.815 89.2562 206.002 90.2796L185.207 92.6943C182.798 92.9741 180.488 93.9267 178.693 95.5585C174.246 99.6017 168.468 108.498 181.13 121.972C199.006 140.993 212.133 134.275 212.133 134.275L214.796 124.22" fill="#0E1317"/>
<mask id="mask8_203_2" style="mask-type:luminance" maskUnits="userSpaceOnUse" x="173" y="90" width="48" height="46">
<path fill-rule="evenodd" clip-rule="evenodd" d="M214.796 124.22L219.62 106.008C221.892 97.43 214.815 89.2562 206.002 90.2796L185.207 92.6943C182.798 92.9741 180.488 93.9267 178.693 95.5585C174.246 99.6017 168.468 108.498 181.13 121.972C199.006 140.993 212.133 134.275 212.133 134.275L214.796 124.22" fill="white"/>
</mask>
<g mask="url(#mask8_203_2)">
</g>
<path d="M204.19 120.118L225.716 137.721L210.937 155.539L187.431 133.395L204.19 120.118Z" fill="#FAA993"/>
<mask id="mask9_203_2" style="mask-type:luminance" maskUnits="userSpaceOnUse" x="187" y="120" width="39" height="36">
<path fill-rule="evenodd" clip-rule="evenodd" d="M204.19 120.118L225.716 137.721L210.937 155.539L187.431 133.395L204.19 120.118Z" fill="white"/>
</mask>
<g mask="url(#mask9_203_2)">
<path d="M203.017 128.73C200.684 137.906 191.646 136.971 206.385 149.475C215.225 156.975 193.924 147.615 193.924 147.615L186.225 133.834L199.925 126.924" fill="#FF6754"/>
</g>
<path d="M208.571 124.217C208.571 124.217 209.343 128.577 207.939 130.71C206.536 132.844 185.982 138.075 182.746 133.79C177.079 126.285 182.207 103.154 189.112 98.4023C196.017 93.6511 208.463 105.939 208.463 105.939L208.571 124.217Z" fill="#FAA993"/>
<path d="M191.203 97.4877C179.697 114.129 192.311 111.515 192.311 111.515" stroke="#0F1317" stroke-width="0.73425"/>
<path d="M216.533 122.06L212.72 119.331C212.72 119.331 186.136 118.212 189.165 96.7499L212.986 97.5971L218.155 104.619L216.533 122.06Z" fill="#0E1317"/>
<path d="M203.047 118.312C212.344 106.566 220.227 121.011 207.351 124.554L203.047 118.312Z" fill="#FAA993"/>
<ellipse cx="195.134" cy="119.335" rx="4.95066" ry="4.44221" transform="rotate(-80.894 195.134 119.335)" fill="#FF6754"/>
<ellipse cx="181.083" cy="117.082" rx="2.36935" ry="2.12602" transform="rotate(-80.894 181.083 117.082)" fill="#FAA993"/>
<ellipse cx="183.418" cy="112.57" rx="1.7731" ry="1.591" transform="rotate(-80.894 183.418 112.57)" fill="#0E1317"/>
<path d="M185.356 108.167C182.863 108.097 184.586 110.945 187.798 111.183C191.009 111.421 187.462 108.227 185.356 108.167Z" fill="#0E1317"/>
<path d="M183.836 120.223C184.019 120.298 184.206 120.363 184.397 120.417C184.48 120.44 184.564 120.461 184.648 120.479C184.684 120.486 184.72 120.492 184.756 120.5C184.895 120.528 184.69 120.497 184.816 120.508C184.973 120.525 185.131 120.532 185.289 120.529C185.359 120.526 185.429 120.517 185.5 120.513C185.607 120.508 185.502 120.514 185.481 120.518C185.533 120.508 185.584 120.499 185.635 120.488C185.761 120.459 185.885 120.421 186.006 120.374C186.038 120.361 186.07 120.347 186.103 120.333C186.087 120.34 185.986 120.395 186.077 120.344C186.143 120.307 186.21 120.274 186.276 120.234C186.38 120.169 186.481 120.098 186.577 120.021C186.646 119.967 186.469 120.125 186.566 120.029C186.586 120.01 186.607 119.992 186.627 119.974C186.681 119.923 186.734 119.871 186.785 119.816C186.874 119.722 186.955 119.623 187.036 119.521C187.132 119.401 187.011 119.565 187.062 119.487C187.101 119.424 187.145 119.364 187.184 119.301C187.32 119.083 187.442 118.856 187.547 118.621C187.568 118.575 187.588 118.528 187.609 118.482C187.664 118.362 187.566 118.596 187.596 118.513C187.607 118.484 187.619 118.456 187.63 118.427C187.673 118.317 187.714 118.206 187.751 118.094C187.814 117.909 187.87 117.722 187.919 117.532C187.957 117.382 187.992 117.232 188.022 117.08C188.046 116.958 188.07 116.779 188.03 117.056C188.08 116.715 188.287 116.418 188.625 116.419C188.785 116.428 188.933 116.501 189.038 116.621C189.142 116.741 189.194 116.899 189.181 117.057C188.903 118.975 187.879 121.151 186.05 121.681C185.193 121.929 184.296 121.78 183.491 121.454C183.182 121.329 183.018 120.988 183.114 120.668C183.201 120.355 183.545 120.105 183.836 120.223L183.836 120.223Z" fill="#DF1D01"/>
<path d="M209.4 117.419C209.474 117.389 209.551 117.368 209.629 117.356L209.417 117.385C209.493 117.376 209.57 117.376 209.646 117.384L209.434 117.356C209.519 117.368 209.603 117.39 209.684 117.422L209.493 117.341C209.583 117.379 209.668 117.428 209.746 117.486L209.585 117.361C209.661 117.42 209.73 117.488 209.791 117.564L209.666 117.402C209.717 117.469 209.76 117.541 209.796 117.617L209.715 117.427C209.749 117.509 209.773 117.596 209.786 117.684L209.757 117.471C209.773 117.608 209.772 117.745 209.753 117.881L209.782 117.669C209.74 117.91 209.67 118.144 209.571 118.367L209.652 118.177C209.588 118.326 209.519 118.472 209.449 118.618C209.346 118.806 209.317 119.026 209.368 119.234C209.425 119.434 209.556 119.605 209.735 119.711C210.093 119.9 210.634 119.826 210.828 119.424C211.225 118.601 211.612 117.654 211.155 116.769C210.77 116.025 209.779 115.555 208.975 115.879C208.778 115.941 208.609 116.071 208.498 116.246C208.391 116.429 208.361 116.647 208.415 116.852C208.469 117.056 208.602 117.232 208.785 117.339C208.962 117.432 209.205 117.498 209.4 117.419L209.4 117.419Z" fill="#FF6754"/>
<path d="M219.24 147.304C253.498 177.359 282.406 108.324 321.02 139.113L306.211 94.5432C299.069 89.533 292.395 90.9722 285.684 95.3711C268.184 106.842 247.527 138.039 220.585 127.879L219.24 147.304Z" fill="#297042"/>
<mask id="mask10_203_2" style="mask-type:luminance" maskUnits="userSpaceOnUse" x="219" y="91" width="103" height="65">
<path fill-rule="evenodd" clip-rule="evenodd" d="M219.24 147.304C253.498 177.359 282.406 108.324 321.02 139.113L306.211 94.5431C299.069 89.5329 292.395 90.9721 285.684 95.371C268.184 106.842 247.527 138.039 220.585 127.879L219.24 147.304Z" fill="white"/>
</mask>
<g mask="url(#mask10_203_2)">
<ellipse opacity="0.14" cx="253.178" cy="123.735" rx="6.12795" ry="6.12914" fill="white"/>
<ellipse opacity="0.14" cx="281.954" cy="138.161" rx="6.12795" ry="6.12914" fill="white"/>
<ellipse opacity="0.14" cx="281.411" cy="119.541" rx="6.12795" ry="6.12914" fill="white"/>
<ellipse opacity="0.14" cx="247.792" cy="148.927" rx="6.12795" ry="6.12914" fill="white"/>
<ellipse opacity="0.14" cx="222.385" cy="132.543" rx="6.12795" ry="6.12914" fill="white"/>
</g>
<path d="M290.016 158.483C311.466 130.256 297.046 95.6378 285.684 95.371C331.493 64.4969 355.397 139.929 355.397 139.929L290.016 158.483Z" fill="#194F2A"/>
<mask id="mask11_203_2" style="mask-type:luminance" maskUnits="userSpaceOnUse" x="285" y="87" width="71" height="72">
<path fill-rule="evenodd" clip-rule="evenodd" d="M290.016 158.483C311.466 130.256 297.046 95.6379 285.684 95.3711C331.493 64.497 355.397 139.93 355.397 139.93L290.016 158.483Z" fill="white"/>
</mask>
<g mask="url(#mask11_203_2)">
<ellipse opacity="0.14" cx="320.754" cy="99.2832" rx="6.12795" ry="6.12914" fill="white"/>
<ellipse opacity="0.14" cx="351.979" cy="139.963" rx="6.12795" ry="6.12914" fill="white"/>
<ellipse opacity="0.14" cx="298.078" cy="140.136" rx="6.12795" ry="6.12914" fill="white"/>
</g>
<path d="M213.132 127.43C221.523 135.426 223.802 137.755 223.802 137.755L227.442 136.449C227.442 136.449 223.492 121.536 213.132 127.43Z" fill="#1B5B2F"/>
<path d="M196.015 141.481C175.444 139.89 196.686 168.955 217.624 152.033C237.733 135.78 220.87 126.826 220.87 126.826C220.87 126.826 223.384 140.533 196.015 141.481Z" fill="#1B5B2F"/>
<mask id="mask12_203_2" style="mask-type:luminance" maskUnits="userSpaceOnUse" x="187" y="126" width="41" height="32">
<path fill-rule="evenodd" clip-rule="evenodd" d="M196.015 141.481C175.444 139.89 196.686 168.955 217.624 152.033C237.733 135.78 220.87 126.826 220.87 126.826C220.87 126.826 223.384 140.533 196.015 141.481Z" fill="white"/>
</mask>
<g mask="url(#mask12_203_2)">
<ellipse opacity="0.14" cx="209.345" cy="142.189" rx="6.12795" ry="6.12914" fill="white"/>
<ellipse opacity="0.14" cx="201.504" cy="159.659" rx="6.12795" ry="6.12914" fill="white"/>
</g>
<path d="M194.533 145.359C191.922 146.594 192.346 149.39 193.395 150.391C194.444 151.392 197.308 155.532 197.308 155.532L185.681 173.012L187.318 177.924L197.13 175.474C197.13 175.474 203.288 156.429 203.017 154.674C202.823 153.421 194.533 145.359 194.533 145.359Z" fill="#FAA993"/>
<path d="M230.382 194.404C229.198 195.148 200.247 180.454 197.717 173.641C195.187 166.828 195.613 173.855 195.613 173.855L183.113 174.029C183.113 174.029 205.3 225.006 238.429 217.683C248.212 215.52 253.563 209.416 256.246 201.886C257.544 200.316 252.39 196.911 252.39 196.911L232.034 189.724L230.619 191.17L230.382 194.404Z" fill="#FAA993"/>
<mask id="mask13_203_2" style="mask-type:luminance" maskUnits="userSpaceOnUse" x="183" y="170" width="74" height="49">
<path fill-rule="evenodd" clip-rule="evenodd" d="M230.382 194.404C229.198 195.148 200.247 180.454 197.717 173.641C195.187 166.828 195.613 173.855 195.613 173.855L183.113 174.029C183.113 174.029 205.3 225.006 238.429 217.683C248.212 215.52 253.563 209.416 256.246 201.886C257.544 200.316 252.39 196.911 252.39 196.911L232.034 189.724L230.619 191.17L230.382 194.404Z" fill="white"/>
</mask>
<g mask="url(#mask13_203_2)">
<path d="M203.058 175.691L197.619 177.924L197.717 173.641L203.058 175.691Z" fill="#FF6754"/>
<path d="M202.962 230.207C230.382 194.404 248.775 201.997 248.775 201.997L235.092 222.535L210.426 229.399" fill="#FF6754"/>
<path d="M176.481 226.253C178.245 227.515 180.016 228.768 181.793 230.012C183.57 231.256 185.354 232.491 187.144 233.716C188.927 234.937 190.716 236.149 192.511 237.351C194.314 238.559 196.124 239.757 197.939 240.947C199.747 242.131 201.562 243.306 203.382 244.472C203.61 244.618 203.839 244.764 204.068 244.91C206.038 246.185 208.313 246.911 210.657 247.014C215.324 247.86 220.125 246.581 223.752 243.524C225.673 242.283 227.245 240.571 228.317 238.551L230.104 234.316C230.948 231.231 230.948 227.976 230.104 224.891L228.317 220.656C226.776 218.027 224.587 215.838 221.959 214.297C220.129 213.128 218.306 211.95 216.489 210.763C214.672 209.577 212.861 208.38 211.056 207.175C209.259 205.975 207.469 204.765 205.684 203.547C203.893 202.323 202.107 201.09 200.328 199.849C198.557 198.612 196.792 197.367 195.034 196.112C194.813 195.955 194.593 195.797 194.372 195.639C192.402 194.364 190.127 193.638 187.783 193.536C183.116 192.689 178.315 193.969 174.688 197.025C172.767 198.266 171.195 199.978 170.123 201.999L168.336 206.233C167.492 209.318 167.492 212.574 168.336 215.659L170.123 219.893C171.664 222.522 173.853 224.712 176.481 226.253L176.481 226.253Z" fill="#FFA90E"/>
</g>
<path d="M185.176 176.692C185.176 176.692 184.273 175.911 183.113 174.029C181.953 172.147 176.108 161.507 185.354 156.658C185.354 156.658 182.141 148.86 181.193 148.495C181.193 148.495 169.527 145.202 169.053 144.685C168.579 144.169 165.976 139.024 168.227 138.967C170.477 138.91 186.027 145.233 186.027 145.233L198.309 157.092L185.176 176.692Z" fill="#FAA993"/>
<mask id="mask14_203_2" style="mask-type:luminance" maskUnits="userSpaceOnUse" x="167" y="138" width="32" height="39">
<path fill-rule="evenodd" clip-rule="evenodd" d="M185.176 176.692C185.176 176.692 184.273 175.911 183.113 174.029C181.953 172.147 176.108 161.507 185.354 156.658C185.354 156.658 182.142 148.86 181.193 148.495C181.193 148.495 169.527 145.202 169.053 144.685C168.579 144.169 165.976 139.024 168.227 138.967C170.477 138.91 186.027 145.233 186.027 145.233L198.309 157.092L185.176 176.692Z" fill="white"/>
</mask>
<g mask="url(#mask14_203_2)">
<path d="M177.303 165.613C178.374 165.371 193.279 159.436 193.279 159.436C193.279 159.436 186.94 157.913 186.371 158.029C185.801 158.144 178.516 159.055 178.516 159.055L176.062 165.02" fill="#FF6754"/>
</g>
<path d="M175.827 150.598C175.571 154.453 177.166 156.002 184.646 151.184L190.85 154.245L195.355 152.424C195.355 152.424 191.018 145.456 187.446 145.266C183.875 145.076 175.827 150.598 175.827 150.598Z" fill="#FAA993"/>
<path d="M181.728 146.769C183.075 150.38 182.862 152.318 189.865 150.257L196.063 158.029L199.559 154.986C199.559 154.986 197.531 146.571 194.219 145.202C190.908 143.834 181.728 146.769 181.728 146.769Z" fill="#FAA993"/>
<path d="M227.652 187.954C227.652 187.954 246.978 185.895 257.544 200.316C257.544 200.316 260.746 206.897 254.495 205.857C248.245 204.817 240.121 195.841 230.382 194.404C220.642 192.968 227.652 187.954 227.652 187.954Z" fill="#FEF9E5"/>
<path d="M209.714 248.102C209.714 248.102 236.578 199.24 248.775 201.997C260.973 204.754 307.002 214.087 316.107 218.402C345.639 232.399 331.959 310.686 217.434 260.074L209.714 248.102Z" fill="#FD513D"/>
<mask id="mask15_203_2" style="mask-type:luminance" maskUnits="userSpaceOnUse" x="209" y="201" width="121" height="76">
<path fill-rule="evenodd" clip-rule="evenodd" d="M209.714 248.102C209.714 248.102 236.578 199.24 248.775 201.997C260.973 204.754 307.002 214.087 316.107 218.403C345.639 232.4 331.959 310.686 217.434 260.074L209.714 248.102Z" fill="white"/>
</mask>
<g mask="url(#mask15_203_2)">
<path opacity="0.1" d="M177.419 216.116H365.213" stroke="#FFA90E" stroke-width="2.02522"/>
<path opacity="0.1" d="M177.738 232.791H365.532" stroke="#FFA90E" stroke-width="2.02522"/>
<path opacity="0.1" d="M178.057 249.467H365.851" stroke="#FFA90E" stroke-width="2.02522"/>
<path opacity="0.1" d="M178.376 266.142H366.17" stroke="#FFA90E" stroke-width="2.02522"/>
<path opacity="0.1" d="M273.096 324.96L269.596 142.012" stroke="#FFA90E" stroke-width="2.02522"/>
<path opacity="0.1" d="M291.118 324.96L287.618 142.012" stroke="#FFA90E" stroke-width="2.02522"/>
<path opacity="0.1" d="M309.14 324.96L305.64 142.012" stroke="#FFA90E" stroke-width="2.02522"/>
<path opacity="0.1" d="M327.162 324.96L323.662 142.012" stroke="#FFA90E" stroke-width="2.02522"/>
<path opacity="0.1" d="M219.029 324.96L215.529 142.012" stroke="#FFA90E" stroke-width="2.02522"/>
<path opacity="0.1" d="M237.051 324.96L233.552 142.012" stroke="#FFA90E" stroke-width="2.02522"/>
<path opacity="0.1" d="M255.073 324.96L251.574 142.012" stroke="#FFA90E" stroke-width="2.02522"/>
<path d="M267.868 232.791C267.585 233.724 267.614 235.015 267.614 235.015C267.614 235.015 240.612 274.025 272.275 282.061C303.938 290.097 244.467 292.72 244.467 292.72L220.533 266.142L267.614 235.015" fill="#BC2E1B"/>
</g>
<path d="M190.546 270.274C208.569 275.433 216.333 279.317 218.661 282.639C220.989 285.961 228.953 296.173 229.397 301.976C230.871 321.221 242.12 317.837 242.637 314.06C242.637 314.06 244.846 297.923 241.8 281.112C241.117 277.343 246.04 264.502 242.877 262.444C239.713 260.386 196.289 261.161 196.289 261.161L190.546 270.274Z" fill="#FAA993"/>
<mask id="mask16_203_2" style="mask-type:luminance" maskUnits="userSpaceOnUse" x="190" y="261" width="54" height="56">
<path fill-rule="evenodd" clip-rule="evenodd" d="M190.546 270.274C208.569 275.433 216.333 279.317 218.661 282.639C220.989 285.961 228.953 296.173 229.397 301.976C230.871 321.221 242.12 317.837 242.637 314.06C242.637 314.06 244.846 297.923 241.8 281.112C241.117 277.343 246.04 264.502 242.877 262.444C239.713 260.386 196.289 261.161 196.289 261.161L190.546 270.274Z" fill="white"/>
</mask>
<g mask="url(#mask16_203_2)">
<path d="M214.183 292.715C228.921 282.324 239.86 265.192 239.86 265.192L213.855 275.584L211.293 290.243" fill="#FF6754"/>
</g>
<path d="M229.333 287.059C230.648 295.484 229.334 295.885 229.591 297.043C229.848 298.201 237.031 300.868 239.561 297.709C242.091 294.551 238.143 281.286 238.143 281.286L229.333 287.059Z" fill="#FAA993"/>
<path d="M191.614 270.983C200.905 269.187 200.387 248.332 200.387 248.332C200.387 248.332 110.002 151.069 102.369 203.153C97.0036 239.76 162.369 269.883 162.369 269.883L191.614 270.983Z" fill="#FD513D"/>
<mask id="mask17_203_2" style="mask-type:luminance" maskUnits="userSpaceOnUse" x="102" y="187" width="99" height="84">
<path fill-rule="evenodd" clip-rule="evenodd" d="M191.614 270.983C200.905 269.187 200.387 248.332 200.387 248.332C200.387 248.332 110.002 151.069 102.369 203.153C97.0036 239.76 162.369 269.883 162.369 269.883L191.614 270.983Z" fill="white"/>
</mask>
<g mask="url(#mask17_203_2)">
<path opacity="0.1" d="M56.699 195.353H244.493" stroke="#FFA90E" stroke-width="2.02522"/>
<path opacity="0.1" d="M57.0179 212.029H244.812" stroke="#FFA90E" stroke-width="2.02522"/>
<path opacity="0.1" d="M57.337 228.704H245.131" stroke="#FFA90E" stroke-width="2.02522"/>
<path opacity="0.1" d="M57.6559 245.379H245.45" stroke="#FFA90E" stroke-width="2.02522"/>
<path opacity="0.1" d="M57.9749 262.055H245.769" stroke="#FFA90E" stroke-width="2.02522"/>
<path opacity="0.1" d="M152.694 320.873L149.195 137.925" stroke="#FFA90E" stroke-width="2.02522"/>
<path opacity="0.1" d="M170.716 320.873L167.217 137.925" stroke="#FFA90E" stroke-width="2.02522"/>
<path opacity="0.1" d="M188.739 320.873L185.239 137.925" stroke="#FFA90E" stroke-width="2.02522"/>
<path opacity="0.1" d="M116.65 320.873L113.15 137.925" stroke="#FFA90E" stroke-width="2.02522"/>
<path opacity="0.1" d="M134.672 320.873L131.172 137.925" stroke="#FFA90E" stroke-width="2.02522"/>
</g>
<path d="M179.026 253.908C169.423 258.201 152.048 264.306 152.102 264.3C152.157 264.295 121.709 256.103 118.775 255.212C115.84 254.321 98.476 255.357 95.4518 255.212C92.4276 255.067 92.161 266.026 101.145 264.771C101.145 264.771 96.7043 264.428 96.0755 265.353C94.7288 267.334 99.0891 275.664 102.19 275.323C102.19 275.323 101.272 280.106 107.546 280.49C111.715 280.746 152.399 290.698 159.145 292.521C169.367 295.284 217.593 268.336 217.593 268.336L179.026 253.908Z" fill="#FAA993"/>
<mask id="mask18_203_2" style="mask-type:luminance" maskUnits="userSpaceOnUse" x="93" y="253" width="125" height="40">
<path fill-rule="evenodd" clip-rule="evenodd" d="M179.026 253.908C169.423 258.201 152.048 264.306 152.102 264.3C152.157 264.295 121.709 256.103 118.775 255.212C115.84 254.321 98.476 255.357 95.4518 255.212C92.4276 255.067 92.161 266.026 101.145 264.771C101.145 264.771 96.7043 264.428 96.0755 265.353C94.7288 267.334 99.0891 275.664 102.19 275.323C102.19 275.323 101.272 280.106 107.546 280.49C111.715 280.746 152.399 290.698 159.145 292.521C169.367 295.284 217.593 268.336 217.593 268.336L179.026 253.908Z" fill="white"/>
</mask>
<g mask="url(#mask18_203_2)">
<path d="M84.1287 258.753L90.9505 261.629L98.3209 264.737L101.145 264.771L107.842 264.261" fill="#FF6754"/>
<path d="M97.2374 279.947L102.19 275.323L114.312 275.277L93.8359 273.314L97.2374 279.947Z" fill="#FF6754"/>
<path d="M172.138 303.998C159.145 292.521 173.659 256.968 173.659 256.968L190.003 282.51L178.776 306.883" fill="#FF6754"/>
</g>
<path d="M173.74 254.446C163.317 289.646 192.263 301.233 192.263 301.233C192.263 301.233 254.54 264.213 266.574 236.409C278.607 208.605 240.518 185.942 220.686 213.373C200.855 240.805 173.74 254.446 173.74 254.446Z" fill="#FD513D"/>
<mask id="mask19_203_2" style="mask-type:luminance" maskUnits="userSpaceOnUse" x="171" y="200" width="98" height="102">
<path fill-rule="evenodd" clip-rule="evenodd" d="M173.74 254.446C163.317 289.646 192.263 301.233 192.263 301.233C192.263 301.233 254.54 264.213 266.574 236.409C278.607 208.605 240.518 185.942 220.686 213.373C200.855 240.805 173.74 254.446 173.74 254.446Z" fill="white"/>
</mask>
<g mask="url(#mask19_203_2)">
<path opacity="0.1" d="M125.378 200.373H313.172" stroke="#FFA90E" stroke-width="2.02522"/>
<path opacity="0.1" d="M125.697 217.049H313.491" stroke="#FFA90E" stroke-width="2.02522"/>
<path opacity="0.1" d="M126.016 233.724H313.81" stroke="#FFA90E" stroke-width="2.02522"/>
<path opacity="0.1" d="M126.335 250.399H314.129" stroke="#FFA90E" stroke-width="2.02522"/>
<path opacity="0.1" d="M126.654 267.075H314.448" stroke="#FFA90E" stroke-width="2.02522"/>
<path opacity="0.1" d="M126.973 283.75H314.767" stroke="#FFA90E" stroke-width="2.02522"/>
<path opacity="0.1" d="M127.292 300.425H315.086" stroke="#FFA90E" stroke-width="2.02522"/>
<path opacity="0.1" d="M221.693 342.568L218.193 159.62" stroke="#FFA90E" stroke-width="2.02522"/>
<path opacity="0.1" d="M239.715 342.568L236.215 159.62" stroke="#FFA90E" stroke-width="2.02522"/>
<path opacity="0.1" d="M257.737 342.568L254.237 159.62" stroke="#FFA90E" stroke-width="2.02522"/>
<path opacity="0.1" d="M185.648 342.568L182.148 159.62" stroke="#FFA90E" stroke-width="2.02522"/>
<path opacity="0.1" d="M203.67 342.568L200.171 159.62" stroke="#FFA90E" stroke-width="2.02522"/>
</g>
<path d="M154.007 171.096L167.719 159.117C170.443 158.55 171.092 162.012 170.943 163.388C170.794 164.763 157.755 178.315 157.755 178.315" fill="#FAA993"/>
<mask id="mask20_203_2" style="mask-type:luminance" maskUnits="userSpaceOnUse" x="154" y="159" width="17" height="20">
<path fill-rule="evenodd" clip-rule="evenodd" d="M154.007 171.096L167.719 159.117C170.443 158.55 171.092 162.012 170.943 163.387C170.794 164.763 157.755 178.315 157.755 178.315" fill="white"/>
</mask>
<g mask="url(#mask20_203_2)">
<path d="M158.564 172.134C158.866 172.016 167.541 164.25 167.541 164.25L162.17 163.42L158.411 170.484" fill="#FAA993"/>
</g>
<path d="M111.005 129.44L107.303 118.829C107.303 118.829 115.037 120.146 117.506 125.758C119.975 131.369 111.005 129.44 111.005 129.44Z" fill="#E3E5F2"/>
<path d="M95.3583 133.583L92.6704 126.085C92.6704 126.085 104.294 123.082 115.686 125.382L113.136 131.044L95.3583 133.583Z" fill="#E3E5F2"/>
<path d="M95.5891 129.007L94.4387 124.328C94.4387 124.328 109.867 121.227 115.686 125.382C121.505 129.536 116.972 131.382 116.972 131.382L95.5891 129.007Z" fill="#E3E5F2"/>
<path d="M98.831 127.098L96.6915 121.974C96.6915 121.974 107.61 118.798 115.686 125.382C123.763 131.965 115.366 132.942 115.366 132.942L98.831 127.098Z" fill="#E3E5F2"/>
<path d="M89.9732 130.338L88.4588 129.672L88.385 129.088C88.385 129.088 105.609 122.874 116.121 126.083L116.301 126.919L89.9732 130.338Z" fill="#63311F"/>
<path d="M129.947 126.266L124.602 122.355C124.602 122.355 152.894 109.997 153.445 102.535L189.155 147.461L176.816 162.963L129.947 126.266Z" fill="#E3E5F2"/>
<path d="M116.277 126.809L116.121 126.083C116.121 126.083 116.841 124.526 118.656 125.504C120.2 126.336 117.651 127.276 117.651 127.276L116.277 126.809Z" fill="#471E12"/>
<path d="M123.051 130.763L118.656 125.504L155.107 108.8L193.353 155.958L192.468 159.659L123.051 130.763Z" fill="#E3E5F2"/>
<path d="M88.4588 129.672C88.4588 129.672 102.163 124.422 116.218 126.39L149.893 168.007L128.243 172.878L88.4588 129.672Z" fill="#8F5A44"/>
<mask id="mask21_203_2" style="mask-type:luminance" maskUnits="userSpaceOnUse" x="88" y="125" width="62" height="48">
<path fill-rule="evenodd" clip-rule="evenodd" d="M88.4587 129.672C88.4587 129.672 102.163 124.422 116.218 126.39L149.893 168.007L128.243 172.878L88.4587 129.672Z" fill="white"/>
</mask>
<g mask="url(#mask21_203_2)">
<path d="M109.147 175.856C112.294 175.64 115.443 175.478 118.596 175.371C121.75 175.265 124.906 175.214 128.062 175.218C129.835 175.221 131.608 175.24 133.38 175.278C135.194 175.305 136.833 174.202 137.491 172.512C137.772 171.979 137.906 171.381 137.878 170.779L137.718 169.583C137.511 168.832 137.112 168.148 136.561 167.598L135.651 166.894C134.962 166.491 134.178 166.279 133.381 166.28C130.224 166.214 127.067 166.203 123.909 166.247C120.754 166.291 117.601 166.391 114.449 166.545C112.681 166.632 110.913 166.737 109.147 166.858C107.965 166.908 106.838 167.374 105.967 168.176C105.165 169.047 104.698 170.174 104.649 171.357L104.81 172.553C105.017 173.304 105.416 173.988 105.967 174.538L106.877 175.242C107.565 175.645 108.349 175.857 109.147 175.856Z" fill="#70402F"/>
</g>
<path d="M153.14 114.161L153.005 112.353L153.271 111.507C153.271 111.507 125.462 121.776 118.656 125.504C118.254 125.931 127.873 129.543 127.873 129.543L153.14 114.161Z" fill="#63311F"/>
<path d="M154.575 117.022L152.942 112.298L153.188 111.515L193.496 158.851L193.28 159.434L154.575 117.022Z" fill="#63311F"/>
<path d="M119.233 127.494L118.673 125.639L153.005 112.353L193.279 159.436L149.982 168.712L119.233 127.494Z" fill="#8F5A44"/>
<mask id="mask22_203_2" style="mask-type:luminance" maskUnits="userSpaceOnUse" x="118" y="112" width="76" height="57">
<path fill-rule="evenodd" clip-rule="evenodd" d="M119.233 127.494L118.673 125.639L153.005 112.353L193.279 159.436L149.982 168.712L119.233 127.494Z" fill="white"/>
</mask>
<g mask="url(#mask22_203_2)">
<path d="M199.486 133.684C196.932 136.783 194.245 139.766 191.425 142.632C188.615 145.487 185.684 148.216 182.633 150.819C180.903 152.296 179.137 153.729 177.337 155.12L178.247 154.416C173.025 158.447 167.527 162.105 161.793 165.365C158.913 167.001 155.978 168.534 152.988 169.963C149.696 171.536 146.346 172.984 143.027 174.496C139.294 176.197 135.595 177.985 132.083 180.11C131.082 180.716 130.345 181.675 130.016 182.798C129.829 183.378 129.801 183.998 129.935 184.592C129.961 185.187 130.146 185.765 130.469 186.265C131.088 187.225 132.01 188.071 133.157 188.332C134.328 188.599 135.572 188.515 136.623 187.879C141.665 184.829 147.079 182.482 152.444 180.073C157.487 177.808 162.444 175.387 167.233 172.619C171.848 169.951 176.308 167.023 180.591 163.848C185.144 160.49 189.504 156.877 193.649 153.025C197.52 149.41 201.178 145.574 204.604 141.535C205.022 141.042 205.437 140.546 205.848 140.047C206.649 139.175 207.116 138.048 207.165 136.865C207.165 135.762 206.675 134.444 205.848 133.684C204.99 132.897 203.865 132.313 202.667 132.366C201.542 132.417 200.233 132.778 199.486 133.684V133.684Z" fill="#70402F"/>
</g>
<path d="M118.673 125.639L149.982 168.713L145.922 170.484L116.028 126.239C116.028 126.239 116.66 127.146 118.673 125.639Z" fill="#63311F"/>
<path d="M159.912 174.88C159.821 174.124 159.501 173.652 159.028 173.386C158.958 173.253 158.888 173.12 158.813 172.986C161.569 167.818 165.983 159.345 165.854 158.329C165.668 156.854 164.207 153.376 161.705 154.591L153.683 166.673C153.432 166.427 153.178 166.185 152.923 165.946C155.629 160.822 159.084 154.064 158.97 153.163C158.784 151.688 157.323 148.21 154.82 149.425L147.089 161.07C145.261 159.692 143.988 158.852 143.988 158.852C143.988 158.852 140.06 142.574 139.446 141.091C138.197 138.074 137.112 137.168 133.66 138.96L136.032 157.742C136.032 157.742 142.586 176.692 147.138 180.536C147.138 180.536 163.594 229.851 183.648 229.084C222.155 227.613 160.608 180.645 159.912 174.88Z" fill="#FAA993"/>
<mask id="mask23_203_2" style="mask-type:luminance" maskUnits="userSpaceOnUse" x="133" y="138" width="64" height="92">
<path fill-rule="evenodd" clip-rule="evenodd" d="M159.912 174.88C159.821 174.124 159.501 173.652 159.028 173.386C158.958 173.253 158.888 173.12 158.813 172.986C161.569 167.818 165.983 159.345 165.854 158.329C165.668 156.854 164.207 153.376 161.705 154.591L153.684 166.673C153.432 166.427 153.178 166.185 152.923 165.946C155.629 160.822 159.084 154.064 158.97 153.163C158.784 151.688 157.323 148.21 154.821 149.425L147.089 161.07C145.261 159.692 143.988 158.852 143.988 158.852C143.988 158.852 140.06 142.574 139.446 141.091C138.197 138.074 137.112 137.168 133.661 138.96L136.032 157.742C136.032 157.742 142.586 176.692 147.138 180.536C147.138 180.536 163.594 229.851 183.648 229.084C222.155 227.613 160.608 180.645 159.912 174.88Z" fill="white"/>
</mask>
<g mask="url(#mask23_203_2)">
<path d="M144.72 154.646L143.088 155.154C143.088 155.154 143.421 159.863 144.115 161.167C144.809 162.471 146.112 163.776 146.112 163.776L148.151 159.055" fill="#FAA993"/>
<path d="M159.314 157.255L154.386 168.242L152.923 165.946L154.466 164.665" fill="#FAA993"/>
<path d="M168.085 179.959L157.755 178.315L161.2 173.142L167.734 180.73" fill="#FAA993"/>
<path d="M132.955 144.839C132.955 144.839 137.053 144.558 137.449 144.165C137.845 143.771 136.297 136.277 136.297 136.277L131.476 138.045L131.488 145.261" fill="white"/>
<path d="M155.226 148.061C154.82 149.425 152.056 153.589 152.056 153.589C152.056 153.589 154.326 155.804 156.207 154.623C158.089 153.443 159.612 148.656 159.612 148.656" fill="white"/>
<path d="M162.229 153.64L159.314 157.255C159.314 157.255 161.927 160.166 163.794 159.659C165.662 159.151 167.931 154.245 167.931 154.245" fill="white"/>
<path d="M127.781 215.232L130.368 220.469L132.955 225.707L134.409 228.65C135.374 230.468 136.788 232.009 138.518 233.126C141.782 235.877 146.103 237.028 150.303 236.267C152.413 236.174 154.46 235.521 156.234 234.373L159.462 231.879C161.416 229.927 162.83 227.501 163.564 224.839L164.134 220.597C164.138 217.767 163.387 214.987 161.956 212.545L159.369 207.307L156.782 202.07L155.328 199.127C154.364 197.308 152.949 195.767 151.22 194.651C147.956 191.9 143.635 190.748 139.435 191.51C137.325 191.602 135.277 192.256 133.504 193.403L130.276 195.898C128.321 197.85 126.908 200.276 126.173 202.938L125.604 207.179C125.599 210.01 126.351 212.79 127.781 215.232Z" fill="#FFA90E"/>
</g>
<path d="M151.308 264.655C151.212 265.617 151.327 266.589 151.644 267.502C151.707 267.71 151.844 267.888 152.029 268.003C152.224 268.115 152.456 268.145 152.674 268.087C153.083 267.955 153.413 267.5 153.259 267.057C153.126 266.674 153.031 266.279 152.974 265.878L153.004 266.101C152.94 265.621 152.933 265.136 152.983 264.655C152.983 264.433 152.894 264.22 152.737 264.063C152.58 263.906 152.367 263.817 152.145 263.817C151.923 263.817 151.71 263.906 151.553 264.063C151.406 264.226 151.319 264.435 151.308 264.655V264.655Z" fill="#FFA90E"/>
<path d="M155.649 266.016C156.087 266.016 156.507 265.631 156.486 265.179C156.479 264.72 156.108 264.349 155.649 264.341C155.211 264.341 154.791 264.727 154.812 265.179C154.819 265.638 155.19 266.009 155.649 266.016Z" fill="#FFA90E"/>
<path d="M235.777 305.421L236.954 303.65C237.126 303.356 237.103 302.987 236.895 302.717C236.688 302.447 236.337 302.329 236.009 302.42C235.802 302.485 235.624 302.621 235.508 302.805L234.331 304.575C234.159 304.87 234.183 305.239 234.39 305.509C234.598 305.779 234.948 305.896 235.277 305.806C235.484 305.741 235.661 305.604 235.777 305.421Z" fill="#FFA90E"/>
<path d="M227.459 154.651C226.951 155.767 226.585 156.944 226.371 158.152C226.164 159.355 226.076 160.576 226.108 161.796C226.173 164.234 226.639 166.656 227.241 169.013C227.571 170.304 227.946 171.583 228.329 172.859C228.412 173.14 228.597 173.381 228.847 173.533C229.111 173.684 229.423 173.725 229.717 173.647C230.288 173.462 230.687 172.864 230.505 172.259C229.869 170.143 229.256 168.016 228.835 165.845C228.717 165.235 228.616 164.623 228.532 164.007L228.572 164.307C228.339 162.546 228.27 160.758 228.505 158.993L228.464 159.293C228.623 158.089 228.939 156.911 229.405 155.788L229.291 156.058C229.329 155.968 229.368 155.879 229.408 155.79C229.535 155.504 229.608 155.234 229.521 154.92C229.441 154.638 229.255 154.396 229.003 154.246C228.74 154.093 228.427 154.053 228.133 154.132C227.871 154.217 227.576 154.388 227.459 154.651L227.459 154.651Z" fill="white"/>
<path d="M266.961 234.072C266.715 234.975 266.409 235.862 266.045 236.724L266.158 236.455C265.592 237.789 264.893 239.062 264.073 240.256C263.838 240.597 263.595 240.931 263.341 241.259L263.518 241.03C262.618 242.193 261.604 243.264 260.493 244.227C260.179 244.5 259.857 244.763 259.527 245.017L259.756 244.841C258.678 245.671 257.526 246.398 256.314 247.014C255.966 247.217 255.752 247.591 255.755 247.994C255.757 248.398 255.974 248.769 256.324 248.969C256.674 249.169 257.104 249.166 257.452 248.963C261.87 246.7 265.441 243.075 267.638 238.624C268.261 237.357 268.763 236.033 269.137 234.672C269.213 234.378 269.172 234.066 269.023 233.802C268.794 233.41 268.353 233.194 267.902 233.252C267.452 233.311 267.081 233.634 266.961 234.072L266.961 234.072Z" fill="white"/>
</g>
</svg>
