<svg width="809" height="857" viewBox="0 0 809 857" fill="none" xmlns="http://www.w3.org/2000/svg">
<path d="M505.228 206.97L416.109 234.265C414.86 234.545 413.568 234.577 412.306 234.358C411.044 234.14 409.838 233.676 408.757 232.993C407.675 232.31 406.74 231.421 406.003 230.377C405.267 229.334 404.745 228.156 404.466 226.911L387.234 149.923C386.671 147.409 387.133 144.775 388.519 142.6C389.904 140.425 392.101 138.887 394.624 138.325L486.188 123.316C489.445 122.783 492.784 123.511 495.52 125.351C498.255 127.192 500.18 130.006 500.899 133.215L514.042 191.886C514.745 195.043 514.228 198.349 512.595 201.144C510.961 203.939 508.331 206.019 505.228 206.97V206.97Z" stroke="#DADEEB" stroke-width="1.37431" stroke-miterlimit="10" stroke-linecap="round"/>
<path d="M535.089 382.497C523.014 361.191 501.529 316.82 495.81 262.365" stroke="#DADEEB" stroke-width="1.37431" stroke-miterlimit="10" stroke-linecap="round"/>
<path d="M696.141 363.77C701.394 348.277 705.969 330.341 706.661 313.47" stroke="#DADEEB" stroke-width="1.37431" stroke-miterlimit="10" stroke-linecap="round"/>
<path d="M753.167 386.846C783.342 389.001 806.121 412.993 804.153 440.346C802.184 467.698 776.203 488.209 746.028 486.055C715.852 483.9 693.074 459.908 695.042 432.555C697.01 405.203 722.992 384.692 753.167 386.846Z" stroke="#DADEEB"/>
<path d="M728.626 260.912C728.626 260.912 739.721 261.595 744.885 255.707C747.529 252.699 754.036 246.347 762.268 242.704C770.5 239.061 761.494 253.79 761.809 254.984C762.22 256.58 777.431 246.231 779.719 249.492C782.007 252.753 784.452 261.601 774.158 270.484C763.864 279.366 731.557 292.165 722.558 291.121C713.558 290.077 717.168 269.324 728.626 260.912Z" fill="#F3ABAA"/>
<path d="M498.242 191.313C498.242 191.313 495.886 186.401 495.502 177.368C495.146 168.766 493.023 152.597 487.797 152.597C485.325 152.597 480.079 154.773 480.51 170.164C480.51 170.164 479.346 176.406 468.566 164.788C457.785 153.17 453.546 153.914 450.354 156.363C444.697 160.715 435.485 171.904 443.211 188.161C450.936 204.418 476.873 217.496 476.873 217.496L498.242 191.313Z" fill="#F3ABAA"/>
<path d="M450.676 159.208C450.676 159.208 458.731 168.929 463.306 171.488" stroke="#0D0F44" stroke-width="0.916209" stroke-miterlimit="10" stroke-linecap="round"/>
<path d="M447.313 165.354C447.313 165.354 455.361 175.076 459.943 177.634" stroke="#0D0F44" stroke-width="0.916209" stroke-miterlimit="10" stroke-linecap="round"/>
<path d="M444.361 172.681C444.361 172.681 452.409 182.389 456.99 184.961" stroke="#0D0F44" stroke-width="0.916209" stroke-miterlimit="10" stroke-linecap="round"/>
<path d="M444.361 182.076C446.891 185.102 449.577 187.997 452.409 190.747" stroke="#0D0F44" stroke-width="0.916209" stroke-miterlimit="10" stroke-linecap="round"/>
<path d="M514.486 420.325L589.386 367.297C591.695 365.662 594.339 364.558 597.129 364.065C599.918 363.572 602.782 363.701 605.515 364.445L721.947 396.011C723.956 396.553 725.787 397.611 727.258 399.079C728.728 400.548 729.785 402.375 730.324 404.378C730.863 406.381 730.864 408.489 730.328 410.493C729.792 412.497 728.737 414.325 727.268 415.795L632.014 511.612C628.846 514.807 624.601 516.716 620.1 516.968C615.6 517.22 611.166 515.798 607.659 512.977L513.931 437.299C512.651 436.261 511.629 434.943 510.945 433.447C510.26 431.951 509.932 430.318 509.986 428.675C510.039 427.032 510.473 425.423 511.254 423.975C512.035 422.527 513.141 421.278 514.486 420.325Z" fill="#0D0F44"/>
<path d="M730.227 394.217L730.733 409.362L723.295 415.673L730.227 394.217Z" fill="#0D0F44"/>
<path d="M509.987 419.145V430.518L521.438 436.473L509.987 419.145Z" fill="#0D0F44"/>
<path d="M514.488 410.474L589.388 357.439C591.696 355.804 594.341 354.7 597.13 354.207C599.92 353.714 602.784 353.844 605.517 354.587L721.948 386.153C723.958 386.695 725.789 387.753 727.259 389.221C728.729 390.69 729.787 392.517 730.325 394.52C730.864 396.523 730.866 398.631 730.329 400.635C729.793 402.639 728.738 404.467 727.27 405.937L632.015 501.754C628.844 504.944 624.595 506.847 620.095 507.093C615.595 507.339 611.163 505.91 607.66 503.085L513.933 427.441C512.654 426.403 511.633 425.085 510.949 423.59C510.266 422.095 509.938 420.463 509.992 418.821C510.045 417.178 510.479 415.571 511.259 414.123C512.039 412.675 513.144 411.427 514.488 410.474Z" fill="#475AEA"/>
<path d="M708.708 407.991L674.463 442.422L673.326 437.647C671.58 429.931 666.128 405.426 661.375 379.788L704.222 391.386C705.91 391.838 707.449 392.724 708.685 393.955C709.921 395.187 710.811 396.72 711.265 398.401C711.72 400.083 711.723 401.854 711.274 403.537C710.825 405.22 709.94 406.756 708.708 407.991Z" fill="#DADEEB"/>
<path d="M574.77 460.378L576.941 464.158L529.718 426.042C528.645 425.172 527.788 424.066 527.214 422.812C526.641 421.557 526.366 420.188 526.412 418.81C526.458 417.432 526.823 416.084 527.478 414.87C528.134 413.656 529.062 412.609 530.191 411.811L552.272 396.182C557.343 418.35 564.89 439.882 574.77 460.378Z" fill="#DADEEB"/>
<path d="M625.112 94.0854C625.112 94.0854 646.562 90.4901 650.624 129.963C653.74 160.253 656.63 164.967 657.521 167.792C658.411 170.616 677.567 192.12 672.075 214.551C672.075 214.551 663.527 243.204 636.947 248.013C610.366 252.823 607.229 188.238 607.229 188.238C607.229 188.238 603.613 104.646 625.112 94.0854Z" fill="#36474F"/>
<path d="M477.12 363.763C490.071 363.763 500.571 353.305 500.571 340.404C500.571 327.503 490.071 317.045 477.12 317.045C464.168 317.045 453.669 327.503 453.669 340.404C453.669 353.305 464.168 363.763 477.12 363.763Z" fill="#475AEA"/>
<path d="M485.435 339.961L476.401 351.558C476.25 351.757 476.046 351.911 475.813 352.003C475.58 352.095 475.325 352.122 475.078 352.079C474.831 352.037 474.6 351.928 474.41 351.764C474.221 351.6 474.081 351.387 474.004 351.149L468.847 335.581C468.767 335.344 468.753 335.09 468.808 334.846C468.862 334.602 468.983 334.378 469.157 334.198C469.331 334.017 469.551 333.888 469.793 333.824C470.036 333.76 470.291 333.764 470.532 333.834L484.716 337.777C484.938 337.835 485.143 337.947 485.31 338.103C485.478 338.26 485.603 338.456 485.675 338.673C485.747 338.89 485.762 339.122 485.72 339.347C485.678 339.572 485.58 339.783 485.435 339.961Z" fill="white"/>
<path d="M674.478 442.422L628.782 488.39C626.122 491.066 622.558 492.661 618.782 492.867C615.007 493.072 611.29 491.873 608.352 489.502L576.943 464.158L574.772 460.378C564.891 439.883 557.345 418.35 552.273 396.182C541.876 351.544 543.575 317.365 543.575 317.365L653.479 317.516C653.062 330.6 656.904 355.72 661.39 379.788C666.143 405.426 671.595 429.931 673.341 437.647L674.478 442.422Z" fill="#0D0F44"/>
<path d="M586.168 366.847L596.017 370.599C596.017 370.599 596.311 401.715 632.617 481.506" stroke="#E6E6E6" stroke-width="0.916209" stroke-miterlimit="10" stroke-linecap="round"/>
<path d="M596.153 174.237C596.153 174.237 566.703 175.902 555.745 197.166C542.3 223.09 526.157 219.938 503.618 193.168C502.785 192.176 501.629 191.508 500.352 191.281C499.074 191.054 497.757 191.283 496.632 191.927C488.276 196.702 470.914 208.73 478.996 222.217C489.475 239.695 521.171 276.228 548.17 274.14C548.17 274.14 543.328 304.581 543.629 317.366C543.629 317.366 560.238 338.269 601.598 337.368C642.959 336.468 653.534 317.516 653.534 317.516C653.534 317.516 653.986 286.236 655.348 278.118C655.348 278.118 682.566 298.386 722.612 291.134C722.612 291.134 717.27 272.762 728.68 260.912C728.68 260.912 689.114 250.031 684.751 243.987C680.388 237.942 668.361 204.275 665.978 199.24C662.862 192.643 653.65 181.584 635.939 176.263C618.227 170.942 596.153 174.237 596.153 174.237Z" fill="#794682"/>
<path d="M562.183 201.369C562.183 201.369 553.088 227.402 548.581 269.556" stroke="#E6E6E6" stroke-width="0.916209" stroke-miterlimit="10" stroke-linecap="round"/>
<path d="M626.679 217.489C626.679 217.489 634.566 243.781 640.136 259.059C641.949 264.029 643.516 267.834 644.486 269.187C648.438 274.7 655.287 278.118 655.287 278.118" stroke="white" stroke-width="0.916209" stroke-miterlimit="10" stroke-linecap="round"/>
<path d="M721.304 258.804C721.304 258.804 709.558 264.876 714.62 289.204" stroke="white" stroke-width="0.916209" stroke-miterlimit="10" stroke-linecap="round"/>
<path d="M506.721 196.777C506.721 196.777 492.016 204.063 484.9 217.489" stroke="white" stroke-width="0.916209" stroke-miterlimit="10" stroke-linecap="round"/>
<path d="M588.544 102.052C588.544 102.052 575.723 107.851 584.791 128.474L596.126 108.553L588.544 102.052Z" fill="#36474F"/>
<path d="M629.857 142.582C629.857 142.582 623.296 175.779 623.296 178.473C623.296 181.168 605.284 185.425 595.161 177.109C595.161 177.109 602.695 155.408 604.023 149.977C605.352 144.547 620.44 138.53 629.857 142.582Z" fill="#F3ABAA"/>
<path d="M629.857 142.582L602.297 155.81C601.331 158.839 600.14 162.448 598.975 165.859C598.975 165.859 623.282 169.687 629.857 142.582Z" fill="#0D0F44"/>
<path d="M633.494 129.641C633.494 143.837 622.576 159.201 609.105 159.201C592.708 159.201 583.695 149.52 584.709 129.641C585.435 115.539 595.633 103.948 609.105 103.948C622.576 103.948 633.494 115.45 633.494 129.641Z" fill="#F3ABAA"/>
<path d="M622.628 129.155C608.116 130.553 588.925 119.372 589 101.027C589.076 82.6822 605.958 82 608.513 82C611.067 82 633.388 85.3565 640.23 107.583C647.072 129.81 628.71 128.568 622.628 129.155Z" fill="#36474F"/>
<path d="M635.182 140.684C640.332 137.722 643.033 132.78 641.216 129.644C639.398 126.508 633.75 126.367 628.601 129.328C623.451 132.29 620.75 137.233 622.568 140.368C624.385 143.504 630.033 143.645 635.182 140.684Z" fill="#F3ABAA"/>
<path d="M608.722 149.384C608.722 149.384 614.345 150.1 616.639 145.195" stroke="#0D0F44" stroke-width="0.916209" stroke-miterlimit="10" stroke-linecap="round"/>
<path d="M629.83 136.135L637.487 132.84" stroke="#0D0F44" stroke-width="0.916209" stroke-miterlimit="10" stroke-linecap="round"/>
<path d="M598.002 132.615L596.42 139.335C596.375 139.53 596.37 139.732 596.406 139.929C596.443 140.126 596.52 140.313 596.632 140.479C596.745 140.645 596.89 140.786 597.06 140.893C597.23 141 597.42 141.071 597.619 141.102L599.242 141.361" stroke="#0D0F44" stroke-width="0.916209" stroke-miterlimit="10" stroke-linecap="round"/>
<path d="M593.562 129.487C593.797 127.542 593.171 125.867 592.164 125.747C591.158 125.627 590.152 127.106 589.918 129.052C589.683 130.997 590.309 132.671 591.316 132.792C592.322 132.912 593.328 131.433 593.562 129.487Z" fill="#0D0F44"/>
<path d="M607.663 131.902C607.897 129.957 607.271 128.282 606.264 128.162C605.258 128.042 604.252 129.521 604.018 131.466C603.783 133.412 604.409 135.086 605.416 135.206C606.422 135.327 607.428 133.847 607.663 131.902Z" fill="#0D0F44"/>
<path d="M553.167 22.2614C551.927 17.5512 549.47 13.2471 546.04 9.77742C542.611 6.30774 538.329 3.79345 533.62 2.4847C528.912 1.17596 523.941 1.1184 519.202 2.31774C514.462 3.51709 510.121 5.93153 506.609 9.32083C503.096 12.7101 500.536 16.9561 499.182 21.6363C497.828 26.3165 497.728 31.2678 498.892 35.9974C500.055 40.7271 502.442 45.0702 505.815 48.5947C509.187 52.1192 513.428 54.7022 518.115 56.0867C519.173 56.4073 520.13 56.9944 520.894 57.7912C521.657 58.588 522.201 59.5676 522.474 60.6354L523.329 63.7937C523.712 65.2442 524.379 66.6052 525.29 67.7988C526.202 68.9925 527.341 69.9955 528.642 70.7505C529.943 71.5055 531.38 71.9978 532.872 72.1992C534.365 72.4006 535.882 72.3071 537.338 71.9242C538.795 71.5418 540.161 70.8773 541.36 69.9688C542.559 69.0603 543.566 67.9256 544.325 66.6294C545.083 65.3332 545.578 63.9009 545.781 62.4144C545.983 60.9279 545.89 59.4163 545.506 57.9659L544.653 54.8348C544.366 53.7781 544.356 52.6659 544.623 51.6039C544.891 50.542 545.426 49.5658 546.179 48.7682C549.54 45.3243 551.949 41.0736 553.173 36.429C554.398 31.7845 554.396 26.9039 553.167 22.2614Z" fill="#FFD550"/>
<path d="M528.249 57.2104L544.414 52.9688" stroke="#FF2633" stroke-width="2.29052" stroke-miterlimit="10" stroke-linecap="round"/>
<path d="M527.834 7.11353C527.834 7.11353 539.492 8.2239 543.379 18.1678" stroke="white" stroke-width="1.83242" stroke-miterlimit="10" stroke-linecap="round"/>
<path d="M493.996 13.1701C493.996 13.1701 485.255 24.1121 491.221 39.5809" stroke="#FF2633" stroke-width="2.29052" stroke-miterlimit="10" stroke-linecap="round"/>
<path d="M484.716 6.52139C484.716 6.52139 471.862 22.6302 480.628 45.4093" stroke="#FF2633" stroke-width="2.29052" stroke-miterlimit="10" stroke-linecap="round"/>
<path d="M540.599 596.197L477.493 615.94C476.445 616.268 475.341 616.387 474.246 616.29C473.151 616.194 472.086 615.883 471.112 615.376C470.138 614.869 469.273 614.176 468.568 613.337C467.862 612.497 467.33 611.527 467.001 610.482L454.385 570.471C453.746 568.444 453.907 566.251 454.836 564.339C455.765 562.427 457.392 560.94 459.385 560.183L521.758 536.442C522.974 536.061 524.254 535.923 525.524 536.035C526.794 536.147 528.03 536.507 529.16 537.095C530.29 537.683 531.293 538.487 532.111 539.461C532.93 540.435 533.547 541.561 533.928 542.773L546.941 584.067C547.714 586.513 547.48 589.165 546.291 591.44C545.102 593.714 543.054 595.425 540.599 596.197Z" fill="#475AEA"/>
<path d="M511.505 581.468L502.786 584.995L491.684 576.399L492.972 567.121C493.039 566.652 493.228 566.208 493.52 565.833C493.812 565.459 494.196 565.167 494.636 564.986L514.717 556.854C514.885 556.786 515.068 556.764 515.248 556.789C515.428 556.814 515.598 556.886 515.741 556.997C515.883 557.109 515.995 557.255 516.063 557.423C516.131 557.59 516.153 557.773 516.128 557.952L513.162 579.339C513.094 579.807 512.906 580.248 512.616 580.621C512.325 580.995 511.942 581.286 511.505 581.468V581.468Z" stroke="white" stroke-width="1.83242" stroke-miterlimit="10" stroke-linecap="round"/>
<path d="M502.841 585.036L495.643 594.253C494.91 595.187 493.349 595.194 492.15 594.253L485.342 588.972C484.144 588.044 483.767 586.53 484.493 585.595L491.685 576.399L502.841 585.036Z" stroke="white" stroke-width="1.83242" stroke-miterlimit="10" stroke-linecap="round"/>
<path d="M515.744 556.997L505.334 570.334" stroke="white" stroke-width="1.83242" stroke-miterlimit="10" stroke-linecap="round"/>
<path d="M503.005 577.19C505.123 577.19 506.84 575.48 506.84 573.37C506.84 571.26 505.123 569.55 503.005 569.55C500.887 569.55 499.17 571.26 499.17 573.37C499.17 575.48 500.887 577.19 503.005 577.19Z" stroke="white" stroke-width="1.83242" stroke-miterlimit="10" stroke-linecap="round"/>
<path d="M265.302 742.019C265.302 742.019 269.369 766.303 264.333 787.881L335.465 827.303C335.465 827.303 338.874 812.438 329.676 796.954C320.477 781.47 315.95 769.336 317.328 752.766L265.302 742.019Z" fill="#9C88DB"/>
<path d="M304.727 778.55L318.301 780.666" stroke="white" stroke-width="1.34399" stroke-miterlimit="10" stroke-linecap="round"/>
<path d="M360.825 710.149C360.825 710.149 379.113 737.58 393.941 739.729L443.149 685.693C443.149 685.693 435.676 673.509 414.575 683.522C414.575 683.522 409.386 686.704 401.125 684.157C397.208 682.955 393.034 680.132 388.717 674.695L360.825 710.149Z" fill="#9C88DB"/>
<path d="M401.817 699.934L405.33 686.646" stroke="white" stroke-width="1.34399" stroke-miterlimit="10" stroke-linecap="round"/>
<path d="M406.278 576.404L350.103 558.013C346.244 556.75 342.092 558.854 340.829 562.713L322.438 618.887C321.175 622.746 323.279 626.898 327.137 628.162L383.312 646.552C387.171 647.816 391.323 645.712 392.586 641.853L410.977 585.678C412.24 581.82 410.136 577.667 406.278 576.404Z" stroke="#DADEEB" stroke-width="1.34399" stroke-miterlimit="10"/>
<path d="M338.943 508.031L291.852 520.601C291.474 520.701 291.079 520.715 290.695 520.644C290.311 520.572 289.947 520.417 289.63 520.189C289.313 519.96 289.051 519.664 288.862 519.323C288.673 518.981 288.561 518.601 288.536 518.211L292.582 485.195C292.723 484.042 293.211 482.959 293.982 482.09C294.753 481.222 295.77 480.608 296.898 480.331L344.842 468.519C345.208 468.416 345.594 468.408 345.964 468.496C346.334 468.583 346.676 468.764 346.956 469.02C347.237 469.276 347.448 469.6 347.57 469.96C347.691 470.32 347.718 470.706 347.649 471.079L341.32 505.467C341.208 506.076 340.925 506.641 340.504 507.095C340.083 507.549 339.541 507.874 338.943 508.031Z" fill="#BEDDFA"/>
<path d="M339.434 426.603C350.439 425.404 358.388 415.509 357.189 404.503C355.989 393.498 346.094 385.549 335.088 386.748C324.083 387.948 316.134 397.843 317.334 408.849C318.533 419.854 328.428 427.803 339.434 426.603Z" fill="#B0A1E6"/>
<path d="M343.669 409.398L333.066 415.002C332.849 415.12 332.605 415.176 332.358 415.164C332.112 415.152 331.873 415.073 331.669 414.935C331.465 414.796 331.303 414.605 331.2 414.38C331.098 414.156 331.059 413.908 331.088 413.663L332.503 400.354C332.523 400.107 332.61 399.87 332.756 399.67C332.901 399.469 333.099 399.313 333.328 399.218C333.557 399.123 333.808 399.093 334.052 399.132C334.297 399.17 334.527 399.276 334.715 399.437L343.904 407.148C344.08 407.289 344.218 407.471 344.304 407.679C344.391 407.887 344.425 408.113 344.401 408.337C344.378 408.561 344.299 408.776 344.171 408.961C344.043 409.146 343.87 409.296 343.669 409.398Z" fill="white"/>
<path d="M105.36 398.27C91.479 416.747 80.1743 437.025 71.7569 458.548C67.8933 468.231 64.7814 478.197 62.4489 488.358C60.2141 498.029 59.2164 507.944 59.48 517.866C59.8191 527.319 61.5926 536.889 65.4421 545.573C68.9942 553.599 74.1678 560.804 80.6379 566.735C86.9522 572.62 94.6279 576.846 102.977 579.035C107.067 580.058 111.286 580.47 115.497 580.259C117.272 580.172 119.041 580.046 120.823 579.997C124.974 579.947 129.119 579.687 133.244 579.218C138.395 578.634 143.436 577.313 148.212 575.297C153.597 572.975 158.406 569.498 162.299 565.112C167.23 559.494 170.45 552.558 172.422 545.397C174.446 538.083 175.831 529.296 170.387 523.082C165.276 517.267 156.699 515.661 149.411 517.381C139.538 519.721 132.183 527.143 127.067 535.571C122.659 542.627 119.708 550.495 118.39 558.71C117.26 566.081 117.275 574.358 120.817 581.129C122.805 584.954 126.163 587.904 129.4 590.669C134.485 594.986 140.043 598.714 145.966 601.782C154.381 606.154 163.477 609.065 172.867 610.39C178.254 611.117 183.697 611.329 189.124 611.022C190.097 610.973 188.898 609.525 188.898 609.525C178.478 610.101 168.043 608.683 158.155 605.346C146.229 601.253 135.352 594.581 126.298 585.805C124.64 584.245 123.238 582.435 122.144 580.439C120.571 577.214 119.641 573.714 119.403 570.134C118.748 562.528 120.179 554.649 122.805 547.514C124.325 543.462 126.252 539.576 128.558 535.913C131.204 531.479 134.6 527.536 138.593 524.261C145.45 518.853 154.957 516.267 163.262 519.81C166.04 520.935 168.446 522.82 170.204 525.249C172.209 528.149 172.871 531.748 172.768 535.232C172.605 539.603 171.429 543.994 170.04 548.12C168.888 551.644 167.352 555.03 165.458 558.217C162.341 563.448 158.042 567.876 152.905 571.145C148.466 573.859 143.586 575.775 138.486 576.807C134.07 577.699 129.585 578.212 125.081 578.339C123.283 578.411 121.488 578.439 119.697 578.492C117.6 578.553 115.502 578.78 113.406 578.784C105.085 578.694 96.9541 576.29 89.9219 571.842C82.7026 567.301 76.5431 561.263 71.8603 554.136C66.9743 546.656 63.69 538.245 62.2141 529.433C60.629 519.971 60.4858 510.324 61.7894 500.819C63.095 491.196 65.2957 481.716 68.363 472.502C71.7801 462.021 75.8874 451.777 80.658 441.839C85.5213 431.692 91.0558 421.881 97.2245 412.471C100.196 407.941 103.311 403.511 106.569 399.18C106.67 399.019 106.706 398.826 106.671 398.64C106.637 398.453 106.533 398.286 106.382 398.172C106.23 398.057 106.041 398.004 105.852 398.022C105.663 398.041 105.487 398.129 105.36 398.27Z" fill="#DADEEB"/>
<path d="M258.646 381.32L272.711 374.419" stroke="#DADEEB" stroke-width="1.34399" stroke-miterlimit="10" stroke-linecap="round"/>
<path d="M257.938 387.914L273.608 388.044" stroke="#DADEEB" stroke-width="1.34399" stroke-miterlimit="10" stroke-linecap="round"/>
<path d="M392.708 671.927C359.576 624.165 320.281 593.907 300.574 578.751C297.541 576.418 293.814 573.546 292.522 572.416C283.06 564.937 280.466 549.26 280.466 549.26L239.548 566.984C239.539 566.94 239.535 566.895 239.533 566.85C239.539 566.904 239.543 566.944 239.514 566.988L239.191 567.124L180.986 558.599C180.194 563.728 174.587 609.582 208.261 640.426C215.463 647.029 228.17 664.504 240.315 688.657C252.393 712.642 259.095 727.98 260.927 744.787L327.968 758.778C324.452 726.525 302.027 679.752 293.153 662.097C287.496 650.778 281.21 639.785 274.327 629.167C295.969 646.262 329.572 675.837 354.427 722.203C354.451 722.173 395.604 676.107 392.708 671.927Z" fill="#0D0F44"/>
<path d="M263.163 731.139L312.849 742.067" stroke="#E6E6E6" stroke-width="1.34399" stroke-miterlimit="10" stroke-linecap="round"/>
<path d="M385.862 662.406C385.862 662.406 371.099 687.512 358.583 699.943" stroke="#E6E6E6" stroke-width="1.34399" stroke-miterlimit="10" stroke-linecap="round"/>
<path d="M272.365 626.13C272.365 626.13 261.812 610.496 255.042 603.643L259.62 594.228" stroke="#E6E6E6" stroke-width="1.34399" stroke-miterlimit="10" stroke-linecap="round"/>
<path d="M177.817 344.624L110.751 364.404C107.684 365.307 104.394 365.066 101.492 363.725C98.5897 362.385 96.2731 360.036 94.9728 357.116L73.9758 309.847C73.2831 308.297 72.9311 306.617 72.9435 304.919C72.956 303.222 73.3326 301.547 74.048 300.008C74.7634 298.469 75.8008 297.101 77.0902 295.997C78.3796 294.893 79.891 294.079 81.5221 293.609L169.323 268.18C170.854 267.739 172.463 267.634 174.038 267.874C175.614 268.115 177.119 268.694 178.449 269.572C179.779 270.45 180.903 271.606 181.743 272.961C182.583 274.315 183.119 275.836 183.314 277.418L189.484 326.801C189.965 330.672 189.056 334.588 186.919 337.852C184.783 341.116 181.557 343.516 177.817 344.624Z" fill="#BEDDFA"/>
<path d="M111.479 349.439L106.58 356.143C106.437 356.343 106.242 356.5 106.015 356.597C105.789 356.694 105.541 356.727 105.297 356.693C105.054 356.658 104.824 356.557 104.634 356.401C104.444 356.245 104.3 356.04 104.218 355.808L100.442 347.255C100.367 347.087 100.34 346.903 100.362 346.722C100.384 346.54 100.454 346.368 100.566 346.223C100.678 346.078 100.827 345.966 100.997 345.899C101.168 345.832 101.353 345.812 101.533 345.842L110.708 347.324C110.926 347.375 111.127 347.479 111.294 347.628C111.462 347.776 111.589 347.963 111.666 348.173C111.742 348.383 111.765 348.609 111.733 348.83C111.7 349.05 111.613 349.26 111.479 349.439Z" fill="white"/>
<path d="M147.852 338.62L140.883 340.713L118.072 347.56C117.903 347.61 117.725 347.627 117.549 347.61C117.374 347.592 117.203 347.54 117.048 347.456C116.892 347.372 116.755 347.259 116.643 347.122C116.532 346.985 116.448 346.828 116.397 346.658C116.296 346.318 116.335 345.951 116.503 345.639C116.672 345.326 116.957 345.093 117.297 344.991L140.184 338.112L147.315 335.972C147.771 336.775 147.96 337.702 147.852 338.62Z" fill="white"/>
<path d="M147.779 339.051C147.584 340.089 146.99 341.01 146.124 341.615C145.258 342.22 144.189 342.461 143.147 342.285C142.215 342.08 141.401 341.515 140.883 340.713C140.371 339.947 140.13 339.033 140.197 338.115C140.223 337.537 140.368 336.971 140.625 336.453C140.881 335.935 141.243 335.476 141.687 335.105C142.13 334.735 142.646 334.461 143.202 334.301C143.758 334.141 144.34 334.099 144.913 334.176C145.419 334.29 145.896 334.509 146.311 334.819C146.727 335.129 147.074 335.523 147.328 335.975C147.779 336.778 147.963 337.705 147.852 338.62C147.835 338.761 147.81 338.906 147.779 339.051Z" fill="white"/>
<path d="M180.327 328.864L147.852 338.62C147.963 337.705 147.779 336.778 147.328 335.975L179.553 326.295C179.725 326.232 179.908 326.204 180.09 326.214C180.273 326.225 180.452 326.272 180.616 326.354C180.78 326.436 180.926 326.55 181.044 326.69C181.162 326.83 181.25 326.993 181.303 327.168C181.356 327.344 181.372 327.528 181.351 327.71C181.33 327.892 181.272 328.068 181.181 328.227C181.09 328.386 180.967 328.524 180.82 328.634C180.673 328.743 180.505 328.822 180.327 328.864Z" fill="#CBE6FF"/>
<path d="M238.949 440.418C238.949 440.418 247.982 444.963 278.273 492.271C284.098 501.363 291.995 508.391 317.799 509.708L296.559 540.266C296.559 540.266 256.672 533.218 251.331 514.927C245.991 496.636 238.949 440.418 238.949 440.418Z" fill="#794682"/>
<path d="M264.268 486.714C259.779 466.059 249.213 446.336 235.36 437.95C226.198 432.406 217.775 432.155 206.411 433.394C178.461 436.441 156.672 470.337 153.576 504.934C152.502 511.197 152.712 517.614 154.193 523.794C157.297 539.374 167.377 550.544 180.262 557.123C214.221 576.573 266.635 556.967 266.635 556.967C270.913 526.081 268.03 502.371 264.268 486.714Z" fill="#794682"/>
<path d="M242.714 454.69C242.714 454.69 263.146 480.894 257.662 540.207" stroke="#E6E6E6" stroke-width="1.34399" stroke-miterlimit="10" stroke-linecap="round"/>
<path d="M330.3 495.427C330.759 495.404 331.217 495.489 331.638 495.675C332.058 495.861 332.429 496.143 332.72 496.499C333.012 496.854 333.217 497.273 333.317 497.721C333.418 498.169 333.413 498.635 333.301 499.081L323.286 547.532C323.127 548.39 322.736 549.189 322.155 549.841C321.574 550.493 320.826 550.973 319.992 551.231L256.446 569.792C256.212 569.859 255.972 569.903 255.73 569.924C255.264 569.951 254.798 569.883 254.359 569.723C253.921 569.563 253.52 569.315 253.181 568.994C252.842 568.673 252.573 568.286 252.389 567.857C252.205 567.428 252.111 566.966 252.112 566.5L259.046 519.987C259.273 518.377 259.96 516.867 261.026 515.639C262.091 514.411 263.489 513.517 265.051 513.066L329.661 495.578C329.867 495.502 330.082 495.451 330.3 495.427Z" fill="#FFD550"/>
<path d="M328.627 494.46C328.238 494.301 327.816 494.236 327.397 494.27C327.172 494.285 326.949 494.328 326.734 494.396L262.125 511.884C260.563 512.336 259.165 513.229 258.099 514.457C257.034 515.685 256.346 517.195 256.12 518.805L249.192 565.317C249.197 566.003 249.404 566.673 249.787 567.242C250.17 567.811 250.712 568.254 251.346 568.517L254.25 569.673C253.616 569.412 253.073 568.969 252.69 568.399C252.307 567.83 252.1 567.16 252.097 566.474L259.031 519.961C259.257 518.351 259.945 516.841 261.01 515.613C262.076 514.385 263.474 513.492 265.036 513.04L329.645 495.552C330.26 495.358 330.923 495.379 331.524 495.611L328.627 494.46Z" fill="#FFB444"/>
<path d="M216.554 535.712C216.554 535.712 229.396 525.903 239.01 521.333C248.625 516.763 257.631 513.936 259.631 514.914C261.101 515.626 262.709 520.953 254.996 528.824C254.996 528.824 262.968 530.706 270.218 529.868C277.1 529.064 282.664 528.451 284.842 534.358C285.197 535.319 285.016 536.941 284.398 538.969C283.178 542.581 281.509 546.026 279.433 549.224C277.713 551.957 275.793 554.559 273.691 557.009C267.509 564.172 259.511 570.046 251.514 569.424C240.689 568.565 229.985 566.56 219.584 563.442C219.584 563.442 203.608 560.695 216.554 535.712Z" fill="#F3ABAA"/>
<path d="M273.669 542.004C271.825 542.214 269.97 542.303 268.115 542.272C268.026 542.27 267.938 542.25 267.857 542.214C267.775 542.178 267.702 542.126 267.64 542.061C267.517 541.931 267.45 541.757 267.454 541.577C267.459 541.397 267.535 541.226 267.665 541.103C267.795 540.979 267.97 540.912 268.149 540.916C268.23 540.908 276.284 541.124 282.436 538.527C282.517 538.493 282.605 538.475 282.693 538.475C282.782 538.474 282.869 538.491 282.951 538.525C283.033 538.558 283.107 538.608 283.17 538.67C283.233 538.732 283.283 538.806 283.317 538.887C283.351 538.969 283.369 539.056 283.369 539.145C283.37 539.233 283.353 539.321 283.319 539.403C283.286 539.484 283.236 539.559 283.174 539.621C283.112 539.684 283.038 539.734 282.957 539.768C279.981 540.945 276.854 541.697 273.669 542.004Z" fill="#FF2633"/>
<path d="M273.649 550.679C271.966 550.863 269.807 551.024 267.091 551.104C267.002 551.107 266.914 551.092 266.831 551.06C266.748 551.029 266.673 550.982 266.608 550.921C266.544 550.86 266.492 550.787 266.456 550.706C266.42 550.625 266.4 550.538 266.398 550.449C266.394 550.271 266.461 550.099 266.583 549.971C266.706 549.842 266.875 549.767 267.053 549.763C274.889 549.53 278.035 548.565 278.069 548.562C278.239 548.509 278.423 548.527 278.58 548.61C278.737 548.692 278.855 548.834 278.908 549.004C278.96 549.173 278.944 549.356 278.862 549.513C278.781 549.67 278.641 549.788 278.472 549.843C276.892 550.264 275.278 550.544 273.649 550.679Z" fill="#FF2633"/>
<path d="M264.071 558.497L262.314 558.688C262.137 558.708 261.959 558.656 261.82 558.544C261.681 558.433 261.592 558.27 261.573 558.093C261.554 557.916 261.605 557.738 261.717 557.6C261.829 557.461 261.991 557.372 262.168 557.352C269.531 556.685 271.852 555.715 271.871 555.706C272.035 555.635 272.22 555.631 272.386 555.696C272.552 555.761 272.686 555.889 272.758 556.053C272.829 556.216 272.833 556.401 272.768 556.567C272.703 556.733 272.575 556.867 272.411 556.939C272.319 556.962 270.297 557.818 264.071 558.497Z" fill="#FF2633"/>
<path d="M258.757 565.566C257.635 565.688 256.353 565.774 254.884 565.819C254.796 565.822 254.708 565.807 254.625 565.776C254.542 565.745 254.466 565.698 254.402 565.638C254.271 565.516 254.194 565.347 254.188 565.168C254.182 564.99 254.247 564.816 254.369 564.685C254.491 564.555 254.66 564.478 254.839 564.472C262.487 564.246 264.747 562.716 264.782 562.671C264.926 562.567 265.105 562.525 265.281 562.553C265.456 562.58 265.613 562.676 265.718 562.819C265.823 562.962 265.867 563.139 265.842 563.314C265.817 563.489 265.724 563.647 265.583 563.753C265.495 563.817 263.868 565.008 258.757 565.566Z" fill="#FF2633"/>
<path d="M175.482 451.218C175.482 451.218 146.627 477.523 142.816 530.307C142.816 530.307 141.86 544.539 150.952 550.612C160.043 556.684 189.65 568.145 225.408 565.092C225.408 565.092 208.341 558.476 216.553 535.712C216.553 535.712 194.063 530.188 187.303 522.496C180.542 514.803 195.276 488.612 195.276 488.612C195.276 488.612 210.042 416.349 175.482 451.218Z" fill="#794682"/>
<path d="M189.216 487.021C189.216 487.021 180.626 517.363 189.631 524.432C192.921 527.021 198.899 531.195 214.961 535.298" stroke="#E6E6E6" stroke-width="1.34399" stroke-miterlimit="10" stroke-linecap="round"/>
<path d="M296.92 526.592C300.208 525.754 303.181 528.221 303.529 532.097C303.878 535.973 301.464 539.812 298.155 540.653C294.847 541.494 291.893 539.017 291.551 535.134C291.209 531.25 293.618 527.432 296.92 526.592Z" fill="white"/>
<path d="M333.033 500.746C333.033 500.746 356.912 519.565 329.461 546.852C329.461 546.852 316.141 556.186 308.013 547.359C308.013 547.359 302.996 537.861 311.415 527.472C312.743 525.419 314.598 523.76 316.786 522.669C320.133 521.188 328.168 516.02 330.028 512.62C331.888 509.219 333.033 500.746 333.033 500.746Z" fill="#F3ABAA"/>
<path d="M314.896 532.426C313.711 532.615 312.495 532.431 311.419 531.899C310.915 531.627 310.481 531.241 310.151 530.773C309.821 530.305 309.603 529.766 309.515 529.2C309.496 529.023 309.548 528.845 309.66 528.707C309.771 528.568 309.933 528.479 310.111 528.459C310.288 528.44 310.465 528.492 310.604 528.604C310.743 528.715 310.832 528.877 310.852 529.055C310.916 529.41 311.06 529.746 311.275 530.037C311.489 530.328 311.768 530.565 312.089 530.731C313.238 531.35 315.662 531.572 320.634 529.124C326.019 526.434 326.947 525.461 327.03 525.357C327.123 525.219 327.264 525.12 327.426 525.08C327.588 525.04 327.759 525.061 327.905 525.14C328.063 525.224 328.18 525.368 328.231 525.538C328.283 525.709 328.265 525.893 328.18 526.05C328.008 526.386 326.983 527.465 321.211 530.325C319.241 531.38 317.105 532.09 314.896 532.426Z" fill="#FF2633"/>
<path d="M313.639 539.499C308.294 540.081 306.507 536.092 306.502 536.045C306.432 535.882 306.429 535.697 306.495 535.531C306.56 535.366 306.689 535.233 306.852 535.162C307.016 535.091 307.201 535.089 307.366 535.154C307.532 535.22 307.665 535.348 307.735 535.512C307.817 535.699 309.766 539.874 316.304 537.471C321.449 535.558 322.77 534.779 322.77 534.779C322.92 534.689 323.099 534.661 323.269 534.701C323.439 534.741 323.587 534.846 323.681 534.993C323.775 535.14 323.809 535.318 323.774 535.489C323.739 535.66 323.639 535.811 323.495 535.909C323.442 535.915 322.145 536.733 316.779 538.73C315.768 539.114 314.713 539.372 313.639 539.499Z" fill="#FF2633"/>
<path d="M314.612 546.747C313.181 546.923 311.73 546.81 310.345 546.414C308.959 546.018 307.667 545.348 306.546 544.443C306.482 544.382 306.43 544.31 306.394 544.229C306.357 544.149 306.337 544.062 306.335 543.974C306.332 543.886 306.347 543.798 306.378 543.715C306.409 543.633 306.456 543.557 306.517 543.493C306.639 543.365 306.806 543.291 306.983 543.285C307.159 543.28 307.331 543.344 307.46 543.464C307.655 543.639 312.185 547.681 319.228 543.831C319.385 543.745 319.569 543.724 319.74 543.774C319.912 543.824 320.057 543.94 320.143 544.096C320.229 544.252 320.249 544.437 320.199 544.608C320.15 544.78 320.034 544.924 319.877 545.01C318.254 545.932 316.464 546.522 314.612 546.747Z" fill="#FF2633"/>
<path d="M230.902 397.249C228.32 405.129 229.73 412.668 234.055 414.082C238.38 415.496 245.314 409.84 247.769 401.913C250.583 392.819 247.719 386.952 243.394 385.538C239.069 384.123 233.462 389.365 230.902 397.249Z" fill="#FFB444"/>
<path d="M247.778 401.916C250.01 395.098 248.797 388.581 245.069 387.361C241.341 386.14 236.509 390.678 234.277 397.496C232.045 404.313 233.258 410.83 236.986 412.05C240.714 413.271 245.546 408.733 247.778 401.916Z" fill="#FFD550"/>
<path d="M225.717 417.526L200.547 408.441L193.982 431.923L192.371 437.669C202.197 444.033 214.616 442.247 221 439.55C224.826 437.929 225.156 435.629 225.156 435.629C223.338 431.109 225.717 417.526 225.717 417.526Z" fill="#F3ABAA"/>
<path d="M224.717 425.402C225.08 421.232 225.717 417.526 225.717 417.526L200.547 408.441C200.547 408.441 203.357 423.242 224.717 425.402Z" fill="#0D0F44"/>
<path d="M222.559 419.182C236.601 417.651 246.662 404.281 245.031 389.321C243.4 374.36 230.694 363.473 216.652 365.004C202.61 366.535 192.549 379.904 194.18 394.865C195.811 409.826 208.517 420.713 222.559 419.182Z" fill="#F3ABAA"/>
<path d="M194.452 386.02C197.281 374.768 205.502 366.22 216.07 365.067C230.313 363.514 243.346 375.978 245.191 392.906C245.289 393.801 245.386 394.69 245.389 395.588L246.61 395.814C246.72 393.716 246.66 391.614 246.432 389.526C244.392 370.821 229.593 357.097 213.346 358.868C200.44 360.275 191.627 366.306 189.9 385.192L194.452 386.02Z" fill="#FFD550"/>
<path d="M253.958 366.54C253.101 358.684 245.82 353.036 237.71 353.92C236.261 354.08 234.842 354.444 233.495 355.002C229.845 352.251 225.421 350.72 220.851 350.628C211.766 350.51 199.727 355.838 196.266 373.824C195.949 377.136 196.086 380.476 196.673 383.75C196.673 383.75 203.254 386.703 208.49 379.67C213.596 372.813 219.1 371.956 222.329 373.862C226.667 376.451 229.455 382.549 240.791 382.361C241.318 382.413 241.85 382.339 242.342 382.144C244.273 386.191 245.221 390.636 245.109 395.119C251.826 387.35 252.284 379.147 251.188 376.475C253.346 373.639 254.337 370.084 253.958 366.54Z" fill="#0D0F44"/>
<path d="M204.051 391.781C205.43 399.959 202.906 407.196 198.425 407.942C193.943 408.687 187.921 402.064 186.676 393.865C185.243 384.442 188.951 379.083 193.438 378.324C197.925 377.564 202.673 383.603 204.051 391.781Z" fill="#FFB444"/>
<path d="M195.836 405.517C199.704 404.866 201.875 398.604 200.685 391.529C199.494 384.455 195.393 379.247 191.525 379.898C187.656 380.549 185.485 386.812 186.676 393.887C187.866 400.961 191.967 406.168 195.836 405.517Z" fill="#FFD550"/>
<path d="M224.816 391.453C225.262 389.499 224.808 387.729 223.802 387.499C222.796 387.27 221.619 388.668 221.174 390.622C220.728 392.576 221.182 394.346 222.188 394.575C223.194 394.805 224.371 393.407 224.816 391.453Z" fill="#0D0F44"/>
<path d="M240.405 393.846C240.856 391.882 240.402 390.101 239.391 389.869C238.379 389.636 237.194 391.041 236.743 393.005C236.292 394.969 236.746 396.75 237.757 396.982C238.768 397.214 239.954 395.81 240.405 393.846Z" fill="#0D0F44"/>
<path d="M211.584 401.039C210.512 402.926 212.2 407.312 217.181 407.053" stroke="#0D0F44" stroke-width="1.34399" stroke-miterlimit="10" stroke-linecap="round"/>
<path d="M230.79 394.544L229.914 402.197C229.888 402.418 229.818 402.631 229.706 402.823C229.594 403.015 229.444 403.183 229.265 403.314C229.086 403.446 228.882 403.54 228.665 403.589C228.449 403.638 228.224 403.643 228.006 403.601L226.211 403.263" stroke="#0D0F44" stroke-width="1.34399" stroke-miterlimit="10" stroke-linecap="round"/>
</svg>
