<?xml version="1.0" standalone="no"?>
<!DOCTYPE svg PUBLIC "-//W3C//DTD SVG 20010904//EN"
 "http://www.w3.org/TR/2001/REC-SVG-20010904/DTD/svg10.dtd">
<svg version="1.0" xmlns="http://www.w3.org/2000/svg"
 width="860.000000pt" height="848.000000pt" viewBox="0 0 860.000000 848.000000"
 preserveAspectRatio="xMidYMid meet">

<g transform="translate(0.000000,848.000000) scale(0.100000,-0.100000)"
fill="#000000" stroke="none">
<path d="M4270 6960 c-167 -15 -296 -52 -465 -135 -410 -200 -776 -571 -919
-929 -61 -152 -105 -374 -106 -525 0 -95 24 -257 54 -358 l23 -80 -58 -12
c-45 -9 -64 -19 -88 -46 -41 -47 -46 -70 -45 -210 1 -133 18 -220 80 -410 72
-217 161 -369 224 -382 32 -6 31 -4 55 -118 69 -334 211 -618 404 -810 l81
-80 0 -191 0 -191 -72 -33 c-655 -294 -1136 -473 -1613 -600 -128 -34 -278
-101 -334 -150 l-35 -30 140 -138 c245 -243 527 -460 804 -617 113 -65 339
-176 423 -209 37 -14 95 -37 130 -50 496 -195 1104 -279 1672 -231 900 75
1737 461 2374 1095 64 64 144 147 178 186 l62 70 -102 29 c-117 32 -466 146
-607 198 -115 42 -193 72 -595 231 -271 108 -396 156 -600 234 l-50 20 -3 198
c-1 110 0 208 2 220 3 12 32 52 63 90 145 173 261 426 324 707 11 50 22 93 24
95 2 2 13 -2 25 -8 75 -40 181 77 260 290 76 204 120 397 120 529 0 107 -14
148 -67 199 l-45 43 16 72 c44 201 59 347 59 592 1 213 -2 252 -22 343 -65
297 -210 487 -416 547 -47 14 -60 23 -87 63 -78 114 -246 253 -418 344 -235
125 -530 176 -850 148z"/>
</g>
</svg>
